<svg xmlns="http://www.w3.org/2000/svg" viewBox="0 0 100 100"><title>Close 2.6</title><desc>Created with Sketch.</desc><path d="M49.111 46.111c.491.491 1.29.488 1.778 0l19.222-19.222c.491-.491 1.281-.497 1.773-.005l1.232 1.232c.488.488.483 1.285-.005 1.773l-19.222 19.222c-.491.491-.488 1.29 0 1.778l19.222 19.222c.491.491.497 1.281.005 1.773l-1.232 1.232c-.488.488-1.285.483-1.773-.005l-19.222-19.222c-.491-.491-1.29-.488-1.778 0l-19.222 19.222c-.491.491-1.281.497-1.773.005l-1.232-1.232c-.488-.488-.483-1.285.005-1.773l19.222-19.222c.491-.491.488-1.29 0-1.778l-19.222-19.222c-.491-.491-.497-1.281-.005-1.773l1.232-1.232c.488-.488 1.285-.483 1.773.005l19.222 19.222z" fill="#000"/></svg>