<svg xmlns="http://www.w3.org/2000/svg" width="1920" height="600"><path d="M393 809l-403 2 801 14z" fill="#b34a8d" stroke="#b34a8d" stroke-width="1.51"/><path d="M1003 814l-212 11 453-12z" fill="#a52f7d" stroke="#a52f7d" stroke-width="1.51"/><path d="M1055-163l158-6 307-53z" fill="#3d5c80" stroke="#3d5c80" stroke-width="1.51"/><path d="M612-178l443 15 465-59z" fill="#42618b" stroke="#42618b" stroke-width="1.51"/><path d="M344-210l268 32 908-44z" fill="#476897" stroke="#476897" stroke-width="1.51"/><path d="M2049 402l-51 119 56 38z" fill="#922b6b" stroke="#922b6b" stroke-width="1.51"/><path d="M2054 559l7 115 7-369z" fill="#9b2c69" stroke="#9b2c69" stroke-width="1.51"/><path d="M2049 402l5 157 14-254z" fill="#962c72" stroke="#962c72" stroke-width="1.51"/><path d="M1786 776l-247 8 529 21z" fill="#c53460" stroke="#c53460" stroke-width="1.51"/><path d="M1539 784l-295 29 824-8z" fill="#b33064" stroke="#b33064" stroke-width="1.51"/><path d="M1910 760l-124 16 282 29z" fill="#d2365d" stroke="#d2365d" stroke-width="1.51"/><path d="M2076 131l-8 174 19-199z" fill="#ab3291" stroke="#ab3291" stroke-width="1.51"/><path d="M1782-196l188 55 164 4z" fill="#996f6e" stroke="#996f6e" stroke-width="1.51"/><path d="M2061 674l7 131 66-942z" fill="#982c6e" stroke="#982c6e" stroke-width="1.51"/><path d="M2068 305l-7 369 73-811z" fill="#a53084" stroke="#a53084" stroke-width="1.51"/><path d="M1970-141l100 111 64-107z" fill="#a86975" stroke="#a86975" stroke-width="1.51"/><path d="M2087 106l-19 199 66-442z" fill="#b33d94" stroke="#b33d94" stroke-width="1.51"/><path d="M2070-30l17 136 47-243z" fill="#b05982" stroke="#b05982" stroke-width="1.51"/><path d="M1973 442l25 79 51-119z" fill="#8d2a6f" stroke="#8d2a6f" stroke-width="1.51"/><path d="M2054 559l-34 107 41 8z" fill="#b93263" stroke="#b93263" stroke-width="1.51"/><path d="M1957 141l-18 137 129 27z" fill="#9b2f8b" stroke="#9b2f8b" stroke-width="1.51"/><path d="M1947 750l-37 10 158 45z" fill="#d6385c" stroke="#d6385c" stroke-width="1.51"/><path d="M2061 674l-41-8 48 139z" fill="#d0365e" stroke="#d0365e" stroke-width="1.51"/><path d="M2020 666l-73 84 121 55z" fill="#d3365d" stroke="#d3365d" stroke-width="1.51"/><path d="M1970-141l-23 91 123 20z" fill="#a1617b" stroke="#a1617b" stroke-width="1.51"/><path d="M1957 141l111 164 8-174z" fill="#a53191" stroke="#a53191" stroke-width="1.51"/><path d="M1973 47l103 84 11-25z" fill="#ab3b96" stroke="#ab3b96" stroke-width="1.51"/><path d="M2070-30l-97 77 114 59z" fill="#ab498d" stroke="#ab498d" stroke-width="1.51"/><path d="M1939 278l110 124 19-97z" fill="#982e7f" stroke="#982e7f" stroke-width="1.51"/><path d="M1973 47l-16 94 119-10z" fill="#a63799" stroke="#a63799" stroke-width="1.51"/><path d="M1947-50l26 97 97-77z" fill="#a45486" stroke="#a45486" stroke-width="1.51"/><path d="M1939 278l-35 43 145 81z" fill="#902c80" stroke="#902c80" stroke-width="1.51"/><path d="M1998 521l22 145 34-107z" fill="#a92f66" stroke="#a92f66" stroke-width="1.51"/><path d="M1905 219l34 59 18-137z" fill="#952f90" stroke="#952f90" stroke-width="1.51"/><path d="M1904 321l69 121 76-40z" fill="#8e2c78" stroke="#8e2c78" stroke-width="1.51"/><path d="M1782-196l41 51 147 4z" fill="#8b6b71" stroke="#8b6b71" stroke-width="1.51"/><path d="M1821 668l126 82 73-84z" fill="#bc3263" stroke="#bc3263" stroke-width="1.51"/><path d="M1998 521l-125-6 147 151z" fill="#9e2d69" stroke="#9e2d69" stroke-width="1.51"/><path d="M1873 515l-52 153 199-2z" fill="#a42e67" stroke="#a42e67" stroke-width="1.51"/><path d="M1973 442l-100 73 125 6z" fill="#87296d" stroke="#87296d" stroke-width="1.51"/><path d="M1821 668l89 92 37-10z" fill="#c13362" stroke="#c13362" stroke-width="1.51"/><path d="M1823-145l124 95 23-91z" fill="#956578" stroke="#956578" stroke-width="1.51"/><path d="M1856 59l101 82 16-94z" fill="#9b3c97" stroke="#9b3c97" stroke-width="1.51"/><path d="M1947-50l-91 109 117-12z" fill="#9a4b8c" stroke="#9a4b8c" stroke-width="1.51"/><path d="M1904 321l-75 62 144 59z" fill="#842a7b" stroke="#842a7b" stroke-width="1.51"/><path d="M1829 383l44 132 100-73z" fill="#7e2873" stroke="#7e2873" stroke-width="1.51"/><path d="M1823-145l-12 36 136 59z" fill="#8e617a" stroke="#8e617a" stroke-width="1.51"/><path d="M1856 59l49 160 52-78z" fill="#96319a" stroke="#96319a" stroke-width="1.51"/><path d="M1811-109l45 168 91-109z" fill="#915486" stroke="#915486" stroke-width="1.51"/><path d="M1905 219l-1 102 35-43z" fill="#8e2d89" stroke="#8e2d89" stroke-width="1.51"/><path d="M1769 66l-45 103 132-110z" fill="#86359c" stroke="#86359c" stroke-width="1.51"/><path d="M1702 268l127 115 75-62z" fill="#7c2a85" stroke="#7c2a85" stroke-width="1.51"/><path d="M1702 268l202 53 1-102z" fill="#832c8b" stroke="#832c8b" stroke-width="1.51"/><path d="M1856 59l-132 110 181 50z" fill="#8a2f9b" stroke="#8a2f9b" stroke-width="1.51"/><path d="M1821 668l-35 108 124-16z" fill="#bc3263" stroke="#bc3263" stroke-width="1.51"/><path d="M1724 169l-22 99 203-49z" fill="#7d2d93" stroke="#7d2d93" stroke-width="1.51"/><path d="M1641 742l-102 42 247-8z" fill="#af3065" stroke="#af3065" stroke-width="1.51"/><path d="M1720 460l26 53 83-130z" fill="#6c2675" stroke="#6c2675" stroke-width="1.51"/><path d="M1811-109l-42 175 87-7z" fill="#8a4b8d" stroke="#8a4b8d" stroke-width="1.51"/><path d="M1731 623l90 45 52-153z" fill="#942b6a" stroke="#942b6a" stroke-width="1.51"/><path d="M1746 513l-15 110 142-108z" fill="#82286d" stroke="#82286d" stroke-width="1.51"/><path d="M1829 383l-83 130 127 2z" fill="#722671" stroke="#722671" stroke-width="1.51"/><path d="M1691-35l78 101 42-175z" fill="#814f8a" stroke="#814f8a" stroke-width="1.51"/><path d="M1731 623l55 153 35-108z" fill="#a92e66" stroke="#a92e66" stroke-width="1.51"/><path d="M1702 268l18 192 109-77z" fill="#702880" stroke="#702880" stroke-width="1.51"/><path d="M1520-222l75 64 187-38z" fill="#6a6772" stroke="#6a6772" stroke-width="1.51"/><path d="M1782-196l29 87 12-36z" fill="#846774" stroke="#846774" stroke-width="1.51"/><path d="M1329 780l-85 33 295-29z" fill="#922a6b" stroke="#922a6b" stroke-width="1.51"/><path d="M1731 623l-90 119 145 34z" fill="#a82e66" stroke="#a82e66" stroke-width="1.51"/><path d="M1782-196l-123 86 152 1z" fill="#7e6378" stroke="#7e6378" stroke-width="1.51"/><path d="M1659-110l32 75 120-74z" fill="#7b5881" stroke="#7b5881" stroke-width="1.51"/><path d="M612-178l295 34 148-19z" fill="#47619c" stroke="#47619c" stroke-width="1.51"/><path d="M1595-158l64 48 123-86z" fill="#736377" stroke="#736377" stroke-width="1.51"/><path d="M1702 268l-116 144 134 48z" fill="#632680" stroke="#632680" stroke-width="1.51"/><path d="M1640 60l84 109 45-103z" fill="#7a349e" stroke="#7a349e" stroke-width="1.51"/><path d="M1691-35l-51 95 129 6z" fill="#794294" stroke="#794294" stroke-width="1.51"/><path d="M1570 318l16 94 116-144z" fill="#5d2787" stroke="#5d2787" stroke-width="1.51"/><path d="M1608 543l123 80 15-110z" fill="#79276f" stroke="#79276f" stroke-width="1.51"/><path d="M1720 460l-112 83 138-30z" fill="#682472" stroke="#682472" stroke-width="1.51"/><path d="M1606 197l96 71 22-99z" fill="#6e2b96" stroke="#6e2b96" stroke-width="1.51"/><path d="M1640 60l-34 137 118-28z" fill="#6f2da0" stroke="#6f2da0" stroke-width="1.51"/><path d="M1590 695l51 47 90-119z" fill="#982b6a" stroke="#982b6a" stroke-width="1.51"/><path d="M1608 543l-18 152 141-72z" fill="#84286e" stroke="#84286e" stroke-width="1.51"/><path d="M1586 412l22 131 112-83z" fill="#582475" stroke="#582475" stroke-width="1.51"/><path d="M1606 197l-36 121 132-50z" fill="#632991" stroke="#632991" stroke-width="1.51"/><path d="M1659-110l-148 88 180-13z" fill="#6c5088" stroke="#6c5088" stroke-width="1.51"/><path d="M1511-22l129 82 51-95z" fill="#6b4691" stroke="#6b4691" stroke-width="1.51"/><path d="M1595-158l-84 136 148-88z" fill="#665682" stroke="#665682" stroke-width="1.51"/><path d="M1525 278l45 40 36-121z" fill="#582891" stroke="#582891" stroke-width="1.51"/><path d="M1498 585l92 110 18-152z" fill="#762670" stroke="#762670" stroke-width="1.51"/><path d="M1525 208l81-11 34-137z" fill="#622c9f" stroke="#622c9f" stroke-width="1.51"/><path d="M1496 9l29 199 115-148z" fill="#5e33a1" stroke="#5e33a1" stroke-width="1.51"/><path d="M1511-22l-15 31 144 51z" fill="#604195" stroke="#604195" stroke-width="1.51"/><path d="M1590 695l-51 89 102-42z" fill="#9f2d68" stroke="#9f2d68" stroke-width="1.51"/><path d="M612-178l219 36 76-2z" fill="#4961a1" stroke="#4961a1" stroke-width="1.51"/><path d="M1213-169l131 21 176-74z" fill="#3a597b" stroke="#3a597b" stroke-width="1.51"/><path d="M1496 9l-79 69 108 130z" fill="#4e30a3" stroke="#4e30a3" stroke-width="1.51"/><path d="M1570 318l-21 87 37 7z" fill="#522482" stroke="#522482" stroke-width="1.51"/><path d="M1525 208v70l81-81z" fill="#572997" stroke="#572997" stroke-width="1.51"/><path d="M1586 412l-37-7 59 138z" fill="#502379" stroke="#502379" stroke-width="1.51"/><path d="M1549 405l-51 180 110-42z" fill="#552375" stroke="#552375" stroke-width="1.51"/><path d="M1498 585l-42 71 134 39z" fill="#7b276f" stroke="#7b276f" stroke-width="1.51"/><path d="M1520-222l-9 200 84-136z" fill="#5e5a7d" stroke="#5e5a7d" stroke-width="1.51"/><path d="M1456 656l83 128 51-89z" fill="#8f2a6b" stroke="#8f2a6b" stroke-width="1.51"/><path d="M1358-91l153 69 9-200z" fill="#505483" stroke="#505483" stroke-width="1.51"/><path d="M1389 414l109 171 51-180z" fill="#3c2179" stroke="#3c2179" stroke-width="1.51"/><path d="M1525 278l24 127 21-87z" fill="#512589" stroke="#512589" stroke-width="1.51"/><path d="M1389 414l-36 92 145 79z" fill="#392078" stroke="#392078" stroke-width="1.51"/><path d="M1344-148l14 57 162-131z" fill="#45587e" stroke="#45587e" stroke-width="1.51"/><path d="M1525 278l-136 136 160-9z" fill="#432486" stroke="#432486" stroke-width="1.51"/><path d="M1386 254l3 160 136-136z" fill="#39258e" stroke="#39258e" stroke-width="1.51"/><path d="M1456 656l-127 124 210 4z" fill="#8c2a6c" stroke="#8c2a6c" stroke-width="1.51"/><path d="M1417 78l-73 75 181 55z" fill="#3f2aa4" stroke="#3f2aa4" stroke-width="1.51"/><path d="M1344 153l42 101 139-46z" fill="#39289d" stroke="#39289d" stroke-width="1.51"/><path d="M1525 208l-139 46 139 24z" fill="#462896" stroke="#462896" stroke-width="1.51"/><path d="M1358-91l138 100 15-31z" fill="#4e488f" stroke="#4e488f" stroke-width="1.51"/><path d="M1358-91l59 169 79-69z" fill="#474195" stroke="#474195" stroke-width="1.51"/><path d="M1356 619l100 37 42-71z" fill="#682572" stroke="#682572" stroke-width="1.51"/><path d="M1353 506l3 113 142-34z" fill="#522275" stroke="#522275" stroke-width="1.51"/><path d="M1358-91l-52 76 111 93z" fill="#384195" stroke="#384195" stroke-width="1.51"/><path d="M1356 619l-27 161 127-124z" fill="#742670" stroke="#742670" stroke-width="1.51"/><path d="M1386 254l-99 85 102 75z" fill="#21238d" stroke="#21238d" stroke-width="1.51"/><path d="M1304 105l40 48 73-75z" fill="#292ca8" stroke="#292ca8" stroke-width="1.51"/><path d="M1306-15l-2 120 113-27z" fill="#3236a0" stroke="#3236a0" stroke-width="1.51"/><path d="M1214 694l115 86 27-161z" fill="#782773" stroke="#782773" stroke-width="1.51"/><path d="M1288 454l65 52 36-92z" fill="#1d1f7e" stroke="#1d1f7e" stroke-width="1.51"/><path d="M1287 339l1 115 101-40z" fill="#202286" stroke="#202286" stroke-width="1.51"/><path d="M1344 153l-57 186 99-85z" fill="#252799" stroke="#252799" stroke-width="1.51"/><path d="M1212 156l75 183 57-186z" fill="#2628a1" stroke="#2628a1" stroke-width="1.51"/><path d="M1353 506l-136 19 139 94z" fill="#44217a" stroke="#44217a" stroke-width="1.51"/><path d="M1344-148l-131-21 145 78z" fill="#3c5585" stroke="#3c5585" stroke-width="1.51"/><path d="M1213-169l93 154 52-76z" fill="#3c4e8d" stroke="#3c4e8d" stroke-width="1.51"/><path d="M1217 525l-3 169 142-75z" fill="#5d2479" stroke="#5d2479" stroke-width="1.51"/><path d="M1288 454l-71 71 136-19z" fill="#29207e" stroke="#29207e" stroke-width="1.51"/><path d="M1212 156l-34 159 109 24z" fill="#25279d" stroke="#25279d" stroke-width="1.51"/><path d="M1304 105l-92 51 132-3z" fill="#282bab" stroke="#282bab" stroke-width="1.51"/><path d="M1214 694l30 119 85-33z" fill="#8b2a72" stroke="#8b2a72" stroke-width="1.51"/><path d="M1055-163l106 12 52-18z" fill="#405b8b" stroke="#405b8b" stroke-width="1.51"/><path d="M1287 339l-123 35 124 80z" fill="#21238c" stroke="#21238c" stroke-width="1.51"/><path d="M1213-169l-52 18 145 136z" fill="#3e528d" stroke="#3e528d" stroke-width="1.51"/><path d="M1161-151l-55 130 200 6z" fill="#3e4c97" stroke="#3e4c97" stroke-width="1.51"/><path d="M1171 108l133-3 2-120z" fill="#3236a7" stroke="#3236a7" stroke-width="1.51"/><path d="M1106-21l65 129 135-123z" fill="#383ea4" stroke="#383ea4" stroke-width="1.51"/><path d="M1171 108l41 48 92-51z" fill="#2a2cb1" stroke="#2a2cb1" stroke-width="1.51"/><path d="M1142 560l72 134 3-169z" fill="#58257e" stroke="#58257e" stroke-width="1.51"/><path d="M1178 315l-14 59 123-35z" fill="#232594" stroke="#232594" stroke-width="1.51"/><path d="M1164 374l53 151 71-71z" fill="#202285" stroke="#202285" stroke-width="1.51"/><path d="M1155 141l23 174 34-159z" fill="#282aa9" stroke="#282aa9" stroke-width="1.51"/><path d="M1142 560l-6 102 78 32z" fill="#68277e" stroke="#68277e" stroke-width="1.51"/><path d="M1165 734l-162 80 241-1z" fill="#972c78" stroke="#972c78" stroke-width="1.51"/><path d="M1214 694l-49 40 79 79z" fill="#892a76" stroke="#892a76" stroke-width="1.51"/><path d="M1155 141l-110 58 133 116z" fill="#282baa" stroke="#282baa" stroke-width="1.51"/><path d="M1171 108l-16 33 57 15z" fill="#2a2cb2" stroke="#2a2cb2" stroke-width="1.51"/><path d="M1164 374l-22 186 75-35z" fill="#242184" stroke="#242184" stroke-width="1.51"/><path d="M1136 662l29 72 49-40z" fill="#7b287a" stroke="#7b287a" stroke-width="1.51"/><path d="M1029-87l77 66 55-130z" fill="#415199" stroke="#415199" stroke-width="1.51"/><path d="M972 444l170 116 22-186z" fill="#21238c" stroke="#21238c" stroke-width="1.51"/><path d="M1106-21l-95 63 160 66z" fill="#373cad" stroke="#373cad" stroke-width="1.51"/><path d="M1045 199l-14 72 147 44z" fill="#282aa7" stroke="#282aa7" stroke-width="1.51"/><path d="M1031 271l133 103 14-59z" fill="#25289c" stroke="#25289c" stroke-width="1.51"/><path d="M1055-163l-26 76 132-64z" fill="#425893" stroke="#425893" stroke-width="1.51"/><path d="M1011 42l144 99 16-33z" fill="#3032b5" stroke="#3032b5" stroke-width="1.51"/><path d="M972 444l2 100 168 16z" fill="#3a248c" stroke="#3a248c" stroke-width="1.51"/><path d="M1136 662l-104 12 133 60z" fill="#7b297e" stroke="#7b297e" stroke-width="1.51"/><path d="M1032 674l-29 140 162-80z" fill="#8c2b7e" stroke="#8c2b7e" stroke-width="1.51"/><path d="M1031 271l-59 173 192-70z" fill="#25279b" stroke="#25279b" stroke-width="1.51"/><path d="M1032 674l104-12 6-102z" fill="#682781" stroke="#682781" stroke-width="1.51"/><path d="M1011 42l34 157 110-58z" fill="#2c2eba" stroke="#2c2eba" stroke-width="1.51"/><path d="M974 544l58 130 110-114z" fill="#5c2786" stroke="#5c2786" stroke-width="1.51"/><path d="M1029-87l-18 129 95-63z" fill="#3e48a6" stroke="#3e48a6" stroke-width="1.51"/><path d="M911-67l100 109 18-129z" fill="#404ca7" stroke="#404ca7" stroke-width="1.51"/><path d="M881 297l91 147 59-173z" fill="#2729a4" stroke="#2729a4" stroke-width="1.51"/><path d="M974 544l-32 30 90 100z" fill="#5f288a" stroke="#5f288a" stroke-width="1.51"/><path d="M920 774l83 40 29-140z" fill="#932d83" stroke="#932d83" stroke-width="1.51"/><path d="M1011 42l-111 105 145 52z" fill="#2c2fbf" stroke="#2c2fbf" stroke-width="1.51"/><path d="M907-144l122 57 26-76z" fill="#445a98" stroke="#445a98" stroke-width="1.51"/><path d="M881 297l7 120 84 27z" fill="#2628a0" stroke="#2628a0" stroke-width="1.51"/><path d="M920 774l-129 51 212-11z" fill="#a43085" stroke="#a43085" stroke-width="1.51"/><path d="M900 147l131 124 14-72z" fill="#2a2cb4" stroke="#2a2cb4" stroke-width="1.51"/><path d="M907-144l4 77 118-20z" fill="#4456a0" stroke="#4456a0" stroke-width="1.51"/><path d="M900 147l-19 150 150-26z" fill="#2b2cb3" stroke="#2b2cb3" stroke-width="1.51"/><path d="M942 574l-94 91 184 9z" fill="#6f2a8b" stroke="#6f2a8b" stroke-width="1.51"/><path d="M848 665l72 109 112-100z" fill="#852c88" stroke="#852c88" stroke-width="1.51"/><path d="M911-67l-40 104 140 5z" fill="#3f46b2" stroke="#3f46b2" stroke-width="1.51"/><path d="M871 37l29 110 111-105z" fill="#3639bd" stroke="#3639bd" stroke-width="1.51"/><path d="M888 417l-85 107 139 50z" fill="#362695" stroke="#362695" stroke-width="1.51"/><path d="M972 444l-84-27 86 127z" fill="#232594" stroke="#232594" stroke-width="1.51"/><path d="M888 417l54 157 32-30z" fill="#392691" stroke="#392691" stroke-width="1.51"/><path d="M803 524l45 141 94-91z" fill="#5e2992" stroke="#5e2992" stroke-width="1.51"/><path d="M583 754l-190 55 398 16z" fill="#ad3397" stroke="#ad3397" stroke-width="1.51"/><path d="M881 297l-60 39 67 81z" fill="#282aa8" stroke="#282aa8" stroke-width="1.51"/><path d="M768 164l113 133 19-150z" fill="#2c2fbd" stroke="#2c2fbd" stroke-width="1.51"/><path d="M907-144l-76 2 80 75z" fill="#465aa1" stroke="#465aa1" stroke-width="1.51"/><path d="M848 665l-57 160 129-51z" fill="#972e8a" stroke="#972e8a" stroke-width="1.51"/><path d="M773 688l18 137 57-160z" fill="#902e8e" stroke="#902e8e" stroke-width="1.51"/><path d="M871 37l-78 33 107 77z" fill="#3639c3" stroke="#3639c3" stroke-width="1.51"/><path d="M769-14l102 51 40-104z" fill="#424ab4" stroke="#424ab4" stroke-width="1.51"/><path d="M831-142l-62 128 142-53z" fill="#4554aa" stroke="#4554aa" stroke-width="1.51"/><path d="M793 70l-25 94 132-17z" fill="#2f32c9" stroke="#2f32c9" stroke-width="1.51"/><path d="M768 164l53 172 60-39z" fill="#2b2eb6" stroke="#2b2eb6" stroke-width="1.51"/><path d="M821 336l-85 112 152-31z" fill="#2729a5" stroke="#2729a5" stroke-width="1.51"/><path d="M736 448l67 76 85-107z" fill="#25279c" stroke="#25279c" stroke-width="1.51"/><path d="M803 524l-30 164 75-23z" fill="#6e2b93" stroke="#6e2b93" stroke-width="1.51"/><path d="M769-14l24 84 78-33z" fill="#3e43bd" stroke="#3e43bd" stroke-width="1.51"/><path d="M768 164l-91 25 144 147z" fill="#2d30bf" stroke="#2d30bf" stroke-width="1.51"/><path d="M645 750l-62 4 208 71z" fill="#a43294" stroke="#a43294" stroke-width="1.51"/><path d="M709 506l64 182 30-164z" fill="#5b2a99" stroke="#5b2a99" stroke-width="1.51"/><path d="M677 189l-59 95 203 52z" fill="#2d2fbd" stroke="#2d2fbd" stroke-width="1.51"/><path d="M614-107l155 93 62-128z" fill="#4858af" stroke="#4858af" stroke-width="1.51"/><path d="M612-178l2 71 217-35z" fill="#4b61a9" stroke="#4b61a9" stroke-width="1.51"/><path d="M646 424l90 24 85-112z" fill="#282aa9" stroke="#282aa9" stroke-width="1.51"/><path d="M618 284l28 140 175-88z" fill="#2a2cb3" stroke="#2a2cb3" stroke-width="1.51"/><path d="M709 506l-95 158 159 24z" fill="#6e2c9a" stroke="#6e2c9a" stroke-width="1.51"/><path d="M773 688l-128 62 146 75z" fill="#9b3091" stroke="#9b3091" stroke-width="1.51"/><path d="M736 448l-27 58 94 18z" fill="#30289d" stroke="#30289d" stroke-width="1.51"/><path d="M769-14l-138 95 162-11z" fill="#3d42c4" stroke="#3d42c4" stroke-width="1.51"/><path d="M631 81l137 83 25-94z" fill="#3436cd" stroke="#3436cd" stroke-width="1.51"/><path d="M631 81l46 108 91-25z" fill="#3033cf" stroke="#3033cf" stroke-width="1.51"/><path d="M614 664l31 86 128-62z" fill="#8c2f97" stroke="#8c2f97" stroke-width="1.51"/><path d="M571 9l60 72 138-95z" fill="#4146c6" stroke="#4146c6" stroke-width="1.51"/><path d="M614-107l-43 116 198-23z" fill="#4751bc" stroke="#4751bc" stroke-width="1.51"/><path d="M344-210l154 59 114-27z" fill="#4e6ea5" stroke="#4e6ea5" stroke-width="1.51"/><path d="M646 424l63 82 27-58z" fill="#2629a4" stroke="#2629a4" stroke-width="1.51"/><path d="M561-45l10 54 43-116z" fill="#4954bf" stroke="#4954bf" stroke-width="1.51"/><path d="M646 424l-157 107 220-25z" fill="#2d29a5" stroke="#2d29a5" stroke-width="1.51"/><path d="M489 531l125 133 95-158z" fill="#5c2ca2" stroke="#5c2ca2" stroke-width="1.51"/><path d="M618 284l-87 117 115 23z" fill="#2b2db6" stroke="#2b2db6" stroke-width="1.51"/><path d="M631 81l-87 70 133 38z" fill="#3235d4" stroke="#3235d4" stroke-width="1.51"/><path d="M544 151l74 133 59-95z" fill="#3032cb" stroke="#3032cb" stroke-width="1.51"/><path d="M544 151l-34 124 108 9z" fill="#3032ca" stroke="#3032ca" stroke-width="1.51"/><path d="M614 664l-31 90 62-4z" fill="#95309a" stroke="#95309a" stroke-width="1.51"/><path d="M531 401l-42 130 157-107z" fill="#292cac" stroke="#292cac" stroke-width="1.51"/><path d="M489 531l17 153 108-20z" fill="#7531a1" stroke="#7531a1" stroke-width="1.51"/><path d="M510 275l21 126 87-117z" fill="#2d30bf" stroke="#2d30bf" stroke-width="1.51"/><path d="M571 9l-27 142 87-70z" fill="#3a3dd3" stroke="#3a3dd3" stroke-width="1.51"/><path d="M506 684l77 70 31-90z" fill="#8f309e" stroke="#8f309e" stroke-width="1.51"/><path d="M612-178l-114 27 116 44z" fill="#4e64af" stroke="#4e64af" stroke-width="1.51"/><path d="M466 89l78 62 27-142z" fill="#3d40d2" stroke="#3d40d2" stroke-width="1.51"/><path d="M498-151l63 106 53-62z" fill="#4c5db7" stroke="#4c5db7" stroke-width="1.51"/><path d="M344-210l117 65 37-6z" fill="#4e70a3" stroke="#4e70a3" stroke-width="1.51"/><path d="M462 198l48 77 34-124z" fill="#3538ca" stroke="#3538ca" stroke-width="1.51"/><path d="M506 684l-113 125 190-55z" fill="#9f3b97" stroke="#9f3b97" stroke-width="1.51"/><path d="M561-45l-156 29 166 25z" fill="#4953c2" stroke="#4953c2" stroke-width="1.51"/><path d="M405-16l61 105 105-80z" fill="#474ec7" stroke="#474ec7" stroke-width="1.51"/><path d="M498-151l-37 6 100 100z" fill="#4d63b1" stroke="#4d63b1" stroke-width="1.51"/><path d="M461-145l-56 129 156-29z" fill="#4c5eb7" stroke="#4c5eb7" stroke-width="1.51"/><path d="M489 531l-58 4 75 149z" fill="#65369e" stroke="#65369e" stroke-width="1.51"/><path d="M431 535l-32 128 107 21z" fill="#773b9a" stroke="#773b9a" stroke-width="1.51"/><path d="M510 275l-105 104 126 22z" fill="#3335b5" stroke="#3335b5" stroke-width="1.51"/><path d="M405 379l84 152 42-130z" fill="#3033a9" stroke="#3033a9" stroke-width="1.51"/><path d="M466 89l-4 109 82-47z" fill="#383bd3" stroke="#383bd3" stroke-width="1.51"/><path d="M405 379l26 156 58-4z" fill="#3234a1" stroke="#3234a1" stroke-width="1.51"/><path d="M169 742l-179 69 403-2z" fill="#a85d7e" stroke="#a85d7e" stroke-width="1.51"/><path d="M399 663l-6 146 113-125z" fill="#964095" stroke="#964095" stroke-width="1.51"/><path d="M462 198l-89 73 137 4z" fill="#383cc1" stroke="#383cc1" stroke-width="1.51"/><path d="M373 271l32 108 105-104z" fill="#373bb7" stroke="#373bb7" stroke-width="1.51"/><path d="M405 379l-55 80 81 76z" fill="#3438a1" stroke="#3438a1" stroke-width="1.51"/><path d="M340 766l53 43 6-146z" fill="#9e488f" stroke="#9e488f" stroke-width="1.51"/><path d="M280-104l125 88 56-129z" fill="#4e68ad" stroke="#4e68ad" stroke-width="1.51"/><path d="M262 228l111 43 89-73z" fill="#3e43be" stroke="#3e43be" stroke-width="1.51"/><path d="M293 48l-31 180 200-30z" fill="#4248c6" stroke="#4248c6" stroke-width="1.51"/><path d="M293 48l169 150 4-109z" fill="#4145cf" stroke="#4145cf" stroke-width="1.51"/><path d="M405-16l-112 64 173 41z" fill="#4953c2" stroke="#4953c2" stroke-width="1.51"/><path d="M344-210l-64 106 181-41z" fill="#4d72a1" stroke="#4d72a1" stroke-width="1.51"/><path d="M340 766l-171-24 224 67z" fill="#a55188" stroke="#a55188" stroke-width="1.51"/><path d="M330 531l-41 95 110 37z" fill="#6f4394" stroke="#6f4394" stroke-width="1.51"/><path d="M330 531l69 132 32-128z" fill="#643d99" stroke="#643d99" stroke-width="1.51"/><path d="M350 459l-20 72 101 4z" fill="#453b9b" stroke="#453b9b" stroke-width="1.51"/><path d="M373 271l-61 55 93 53z" fill="#3a40b0" stroke="#3a40b0" stroke-width="1.51"/><path d="M312 326l38 133 55-80z" fill="#383ea7" stroke="#383ea7" stroke-width="1.51"/><path d="M280-104l13 152 112-64z" fill="#4d61b3" stroke="#4d61b3" stroke-width="1.51"/><path d="M289 626l51 140 59-103z" fill="#8a4790" stroke="#8a4790" stroke-width="1.51"/><path d="M262 228l50 98 61-55z" fill="#3e45b4" stroke="#3e45b4" stroke-width="1.51"/><path d="M280-104l-61 62 74 90z" fill="#4e67ad" stroke="#4e67ad" stroke-width="1.51"/><path d="M289 626l-120 116 171 24z" fill="#925089" stroke="#925089" stroke-width="1.51"/><path d="M219 443l111 88 20-72z" fill="#373f98" stroke="#373f98" stroke-width="1.51"/><path d="M312 326l-93 117 131 16z" fill="#3a41a0" stroke="#3a41a0" stroke-width="1.51"/><path d="M187 651l-18 91 120-116z" fill="#865287" stroke="#865287" stroke-width="1.51"/><path d="M154-201l126 97 64-106z" fill="#4b7c96" stroke="#4b7c96" stroke-width="1.51"/><path d="M189 49l73 179 31-180z" fill="#4852c3" stroke="#4852c3" stroke-width="1.51"/><path d="M189 49l-31 146 104 33z" fill="#4752bc" stroke="#4752bc" stroke-width="1.51"/><path d="M192 555l97 71 41-95z" fill="#624691" stroke="#624691" stroke-width="1.51"/><path d="M219 443l-27 112 138-24z" fill="#484592" stroke="#484592" stroke-width="1.51"/><path d="M262 228l-83 44 133 54z" fill="#414aaf" stroke="#414aaf" stroke-width="1.51"/><path d="M179 272l40 171 93-117z" fill="#3e48a5" stroke="#3e48a5" stroke-width="1.51"/><path d="M219-42l-30 91 104-1z" fill="#4d61b3" stroke="#4d61b3" stroke-width="1.51"/><path d="M192 555l-5 96 102-25z" fill="#714d8b" stroke="#714d8b" stroke-width="1.51"/><path d="M154-201l65 159 61-62z" fill="#4d779c" stroke="#4d779c" stroke-width="1.51"/><path d="M158 195l21 77 83-44z" fill="#444fb2" stroke="#444fb2" stroke-width="1.51"/><path d="M51 735l-61 76 179-69z" fill="#a06578" stroke="#a06578" stroke-width="1.51"/><path d="M105 107l53 88 31-146z" fill="#4a57bd" stroke="#4a57bd" stroke-width="1.51"/><path d="M179 272l-130 98 170 73z" fill="#404e9c" stroke="#404e9c" stroke-width="1.51"/><path d="M96 582l96-27 27-112z" fill="#514b8c" stroke="#514b8c" stroke-width="1.51"/><path d="M49 370l47 212 123-139z" fill="#3b4b8d" stroke="#3b4b8d" stroke-width="1.51"/><path d="M103-66l86 115 30-91z" fill="#4e6ca8" stroke="#4e6ca8" stroke-width="1.51"/><path d="M154-201l-51 135 116 24z" fill="#4c799a" stroke="#4c799a" stroke-width="1.51"/><path d="M69-137l34 71 51-135z" fill="#498191" stroke="#498191" stroke-width="1.51"/><path d="M86 262l-37 108 130-98z" fill="#4353a2" stroke="#4353a2" stroke-width="1.51"/><path d="M50 703l119 39 18-91z" fill="#8d5a80" stroke="#8d5a80" stroke-width="1.51"/><path d="M103-66l2 173 84-58z" fill="#4e67ae" stroke="#4e67ae" stroke-width="1.51"/><path d="M96 582l91 69 5-96z" fill="#6c5188" stroke="#6c5188" stroke-width="1.51"/><path d="M158 195l-72 67 93 10z" fill="#4553ac" stroke="#4553ac" stroke-width="1.51"/><path d="M96 582l-46 121 137-52z" fill="#7c5981" stroke="#7c5981" stroke-width="1.51"/><path d="M105 107l-25 41 78 47z" fill="#4a59b7" stroke="#4a59b7" stroke-width="1.51"/><path d="M50 703l1 32 118 7z" fill="#95607b" stroke="#95607b" stroke-width="1.51"/><path d="M-17-188l86 51 85-64z" fill="#448987" stroke="#448987" stroke-width="1.51"/><path d="M80 148l6 114 72-67z" fill="#4857af" stroke="#4857af" stroke-width="1.51"/><path d="M-100 410l-4 144 153-184z" fill="#3d5883" stroke="#3d5883" stroke-width="1.51"/><path d="M49 370l-153 184 200 28z" fill="#465482" stroke="#465482" stroke-width="1.51"/><path d="M-90-98l-15 150 208-118z" fill="#4b7c96" stroke="#4b7c96" stroke-width="1.51"/><path d="M103-66l-208 118 210 55z" fill="#4e6da6" stroke="#4e6da6" stroke-width="1.51"/><path d="M-105 52l185 96 25-41z" fill="#4e63b1" stroke="#4e63b1" stroke-width="1.51"/><path d="M69-137l-159 39 193 32z" fill="#498191" stroke="#498191" stroke-width="1.51"/><path d="M80 148l-186 5 192 109z" fill="#495eab" stroke="#495eab" stroke-width="1.51"/><path d="M-85 666l135 37 46-121z" fill="#7c607a" stroke="#7c607a" stroke-width="1.51"/><path d="M-104 554l19 112 181-84z" fill="#6b5f7a" stroke="#6b5f7a" stroke-width="1.51"/><path d="M-105 52l-1 101 186-5z" fill="#4e66af" stroke="#4e66af" stroke-width="1.51"/><path d="M-80 334l129 36 37-108z" fill="#435898" stroke="#435898" stroke-width="1.51"/><path d="M-106 153l26 181 166-72z" fill="#475f9f" stroke="#475f9f" stroke-width="1.51"/><path d="M-17-188l-73 90 159-39z" fill="#438987" stroke="#438987" stroke-width="1.51"/><path d="M-80 334l-20 76 149-40z" fill="#415b8d" stroke="#415b8d" stroke-width="1.51"/><path d="M50 703l-135-37 136 69z" fill="#8c6576" stroke="#8c6576" stroke-width="1.51"/><path d="M-85 666l75 145 61-76z" fill="#966a73" stroke="#966a73" stroke-width="1.51"/><path d="M-106 153l-47 65 73 116z" fill="#48659b" stroke="#48659b" stroke-width="1.51"/><path d="M-85 666l-44 20 119 125z" fill="#906d6f" stroke="#906d6f" stroke-width="1.51"/><path d="M-129 686l-79 96 198 29z" fill="#9a7469" stroke="#9a7469" stroke-width="1.51"/><path d="M-158 501l54 53 4-144z" fill="#3e5b79" stroke="#3e5b79" stroke-width="1.51"/><path d="M-138-134l48 36 73-90z" fill="#3f8d81" stroke="#3f8d81" stroke-width="1.51"/><path d="M-154 109l48 44 1-101z" fill="#4e6ca7" stroke="#4e6ca7" stroke-width="1.51"/><path d="M-172-14l67 66 15-150z" fill="#4a7f93" stroke="#4a7f93" stroke-width="1.51"/><path d="M-104 554l-25 132 44-20z" fill="#756872" stroke="#756872" stroke-width="1.51"/><path d="M-153 218l-78 56 151 60z" fill="#456593" stroke="#456593" stroke-width="1.51"/><path d="M-231 274l37 113 114-53z" fill="#42648a" stroke="#42648a" stroke-width="1.51"/><path d="M-194 387l94 23 20-76z" fill="#405f87" stroke="#405f87" stroke-width="1.51"/><path d="M-138-134l-34 120 82-84z" fill="#438987" stroke="#438987" stroke-width="1.51"/><path d="M-158 501l29 185 25-132z" fill="#626474" stroke="#626474" stroke-width="1.51"/><path d="M-194 387l36 114 58-91z" fill="#3c5e7e" stroke="#3c5e7e" stroke-width="1.51"/><path d="M-154 109l1 109 47-65z" fill="#4c69a3" stroke="#4c69a3" stroke-width="1.51"/><path d="M-172-14l18 123 49-57z" fill="#4c769c" stroke="#4c769c" stroke-width="1.51"/><path d="M-158 501l-50 281 79-96z" fill="#7b6e6c" stroke="#7b6e6c" stroke-width="1.51"/><path d="M-194 387l-14 395 50-281z" fill="#596671" stroke="#596671" stroke-width="1.51"/><path d="M-172-14l-59 288 77-165z" fill="#4e6ea4" stroke="#4e6ea4" stroke-width="1.51"/><path d="M-154 109l-77 165 78-56z" fill="#496a9a" stroke="#496a9a" stroke-width="1.51"/><path d="M-231 274l23 508 14-395z" fill="#396073" stroke="#396073" stroke-width="1.51"/></svg>