<svg xmlns="http://www.w3.org/2000/svg" xmlns:xlink="http://www.w3.org/1999/xlink" width="922.73" height="636.56" viewBox="0 0 922.73 636.56"><defs><linearGradient id="a" x1="704.04" y1="628.14" x2="704.04" y2="138.69" gradientUnits="userSpaceOnUse"><stop offset=".01" stop-color="#808080" stop-opacity=".25"/><stop offset=".54" stop-color="#808080" stop-opacity=".12"/><stop offset="1" stop-color="#808080" stop-opacity=".1"/></linearGradient><linearGradient id="b" x1="560.05" y1="462.46" x2="560.05" y2="29.48" xlink:href="#a"/><clipPath id="c" transform="translate(-144.57 -138.69)"><rect x="395.46" y="178.13" width="617.65" height="410.82" rx="8.85" ry="8.85" fill="#fff"/></clipPath><linearGradient id="d" x1="600" y1="694.72" x2="600" y2="205.28" xlink:href="#a"/><linearGradient id="e" x1="456.01" y1="529.04" x2="456.01" y2="96.07" xlink:href="#a"/><clipPath id="f" transform="translate(-144.57 -138.69)"><rect x="291.42" y="244.72" width="617.65" height="410.82" rx="8.85" ry="8.85" fill="#fff"/></clipPath><linearGradient id="g" x1="495.96" y1="761.31" x2="495.96" y2="271.86" xlink:href="#a"/><linearGradient id="h" x1="351.97" y1="595.63" x2="351.97" y2="162.65" xlink:href="#a"/><clipPath id="i" transform="translate(-144.57 -138.69)"><rect x="187.38" y="311.3" width="617.65" height="410.82" rx="8.85" ry="8.85" fill="#fff"/></clipPath></defs><title>images</title><path d="M1055 612.72a15.34 15.34 0 0 1-15.26 15.42h-671.4a15.34 15.34 0 0 1-15.26-15.42v-458.61a15.34 15.34 0 0 1 15.26-15.42h671.4a15.34 15.34 0 0 1 15.26 15.42" transform="translate(-144.57 -138.69)" fill="url(#a)"/><path d="M1047.11 605.21a14.91 14.91 0 0 1-14.91 14.91h-655.83a14.91 14.91 0 0 1-14.91-14.91v-443.33a14.91 14.91 0 0 1 14.91-14.88h655.83a14.91 14.91 0 0 1 14.91 14.91" transform="translate(-144.57 -138.69)" fill="#f5f5f5"/><rect x="243.09" y="29.48" width="633.92" height="432.98" rx="8.85" ry="8.85" fill="url(#b)"/><rect x="250.89" y="39.44" width="617.65" height="410.82" rx="8.85" ry="8.85" fill="#fff"/><path d="M361.11 585.18l172.44-197.59a34.33 34.33 0 0 1 48.57-3.17l48.29 42.58a34.33 34.33 0 0 0 44.8.54l147.58-124.03a34.33 34.33 0 0 1 47.49 3.19l181.11 199.3a34.33 34.33 0 0 1 8.78 20l7 78.63a34.33 34.33 0 0 1-34.17 37.45h-646a34.33 34.33 0 0 1-34.31-33.29 34.33 34.33 0 0 1 8.42-23.61z" transform="translate(-144.57 -138.69)" fill="#6c63ff" clip-path="url(#c)"/><circle cx="325.27" cy="105.32" r="38.25" fill="#ff5252"/><path d="M951 679.3a15.34 15.34 0 0 1-15.26 15.42h-671.44a15.34 15.34 0 0 1-15.3-15.42v-458.6a15.34 15.34 0 0 1 15.26-15.42h671.44a15.34 15.34 0 0 1 15.3 15.42" transform="translate(-144.57 -138.69)" fill="url(#d)"/><path d="M943.07 671.8a14.91 14.91 0 0 1-14.91 14.91h-655.83a14.91 14.91 0 0 1-14.91-14.91v-443.34a14.91 14.91 0 0 1 14.91-14.91h655.83a14.91 14.91 0 0 1 14.91 14.91" transform="translate(-144.57 -138.69)" fill="#f5f5f5"/><rect x="139.05" y="96.07" width="633.92" height="432.98" rx="8.85" ry="8.85" fill="url(#e)"/><rect x="146.85" y="106.03" width="617.65" height="410.82" rx="8.85" ry="8.85" fill="#fff"/><path d="M257.07 651.77l172.44-197.6a34.33 34.33 0 0 1 48.58-3.17l48.28 42.6a34.33 34.33 0 0 0 44.8.54l147.58-124.05a34.33 34.33 0 0 1 47.49 3.19l181.1 199.34a34.33 34.33 0 0 1 8.78 20l7 78.63a34.33 34.33 0 0 1-34.19 37.36h-646a34.33 34.33 0 0 1-34.31-33.29 34.33 34.33 0 0 1 8.45-23.55z" transform="translate(-144.57 -138.69)" fill="#6c63ff" clip-path="url(#f)"/><circle cx="221.23" cy="171.9" r="38.25" fill="#ff5252"/><path d="M846.92 745.89a15.34 15.34 0 0 1-15.26 15.42h-671.4a15.34 15.34 0 0 1-15.26-15.42v-458.61a15.34 15.34 0 0 1 15.26-15.42h671.4a15.34 15.34 0 0 1 15.26 15.42" transform="translate(-144.57 -138.69)" fill="url(#g)"/><path d="M839 738.38a14.91 14.91 0 0 1-14.91 14.91h-655.8a14.91 14.91 0 0 1-14.91-14.91v-443.38a14.91 14.91 0 0 1 14.91-14.91h655.83a14.91 14.91 0 0 1 14.88 14.91" transform="translate(-144.57 -138.69)" fill="#fff"/><rect x="35.01" y="162.65" width="633.92" height="432.98" rx="8.85" ry="8.85" fill="url(#h)"/><rect x="42.81" y="172.61" width="617.65" height="410.82" rx="8.85" ry="8.85" fill="#fff"/><path d="M153 718.35l172.48-197.59a34.33 34.33 0 0 1 48.52-3.17l48.28 42.6a34.33 34.33 0 0 0 44.8.54l147.63-124.05a34.33 34.33 0 0 1 47.49 3.19l181.1 199.34a34.33 34.33 0 0 1 8.78 20l7 78.63a34.33 34.33 0 0 1-34.19 37.36h-646a34.33 34.33 0 0 1-34.31-33.2 34.33 34.33 0 0 1 8.42-23.65z" transform="translate(-144.57 -138.69)" fill="#6c63ff" clip-path="url(#i)"/><circle cx="117.19" cy="238.49" r="38.25" fill="#ff5252"/></svg>