<svg width="767" height="217" viewBox="0 0 767 217" xmlns="http://www.w3.org/2000/svg"><title>logo</title><desc>Created with Sketch.</desc><defs><linearGradient x1="38.963%" y1="95.477%" x2="38.963%" y2="17.085%" id="a"><stop stop-color="#1D1F7A" offset="0%"/><stop stop-color="#3336DB" offset="100%"/></linearGradient></defs><g fill="none"><path d="M325.424 11.518c48.394 0 72.451 26.599 72.451 63.894 0 31.806-21.806 48.976-34.186 54.324l38.125 73.886h-55.569l-32.075-67.131h-22.65v67.131h-49.52v-192.104h83.424zm-33.904 90.071h26.026c16.46 0 28.418-8.585 28.418-26.036 0-17.873-12.802-26.88-28.136-26.88h-26.307v52.917zm132.128-90.071h77.938c62.181 0 87.223 38.28 87.223 95.137 0 57.279-25.463 96.967-87.223 96.967h-77.938v-192.104zm50.505 39.547v113.011h18.992c25.182 0 44.033-9.711 44.033-56.153 0-30.117-8.16-56.857-44.033-56.857h-18.992zm129.596 95.559h47.691c.703 11.4 11.677 22.518 32.919 22.518 20.258 0 29.121-8.585 29.121-19.844s-9.566-16.185-27.996-19.844l-25.885-5.207c-29.402-5.77-52.052-21.251-52.052-55.45 0-38.843 31.935-60.798 76.39-60.798 48.957 0 75.405 27.443 75.546 59.39h-46.144c-.563-10.696-9.848-21.955-29.402-21.955-17.304 0-26.307 8.022-26.307 19.281 0 9.711 9.144 15.34 25.463 18.296l26.87 5.066c27.292 4.926 53.037 18.577 53.037 56.013 0 37.576-27.996 62.909-80.188 62.909-60.071 0-78.782-32.088-79.063-60.376z" fill="url(#a)"/><path d="M159.879 83.913v-42.243l-58.123-33.669-58.116 33.669v42.52l-37.641 21.805v67.336l58.12 33.669 37.881-21.945 37.878 21.945 58.12-33.669v-67.336l-38.121-22.082zm-110.208-38.748l52.085-30.174 52.09 30.174v35.252l-13.966-8.09-37.878 21.945-37.881-21.945-14.449 8.371v-35.533zm38.123 89.42l13.962 8.09 14.456-8.373v35.533l-14.209 8.229-14.206-8.229v-35.249h-.002zm13.962 1.096l-13.962-8.087v-18.104l14.206-8.231 14.209 8.231v17.816l-14.454 8.375zm-52.085-47.994l14.449-8.371 31.847 18.449-14.206 8.229v18.104l-32.09-18.591v-17.821zm58.365 10.078l31.843-18.449 13.966 8.09v18.104l-31.603 18.305v-17.818l-14.206-8.231zm-43.916 102.241l-52.085-30.171v-60.345l31.603-18.307v17.823l38.123 22.086v42.241l14.204 8.229-31.845 18.444zm127.849-30.171l-52.09 30.171-31.843-18.447 14.206-8.229v-42.524l37.636-21.801v-18.104l32.09 18.588v60.345z" fill-rule="nonzero" stroke="url(#a)" stroke-width="8"/></g></svg>