<svg xmlns="http://www.w3.org/2000/svg" xmlns:xlink="http://www.w3.org/1999/xlink" width="894.09" height="426" viewBox="0 0 894.09 426"><defs><linearGradient id="a" x1="994.97" y1="624.54" x2="994.97" y2="581" gradientUnits="userSpaceOnUse"><stop offset="0" stop-color="#808080" stop-opacity=".25"/><stop offset=".54" stop-color="#808080" stop-opacity=".12"/><stop offset="1" stop-color="#808080" stop-opacity=".1"/></linearGradient><linearGradient id="b" x1="255.91" y1="453.73" x2="255.91" y2="237" xlink:href="#a"/><linearGradient id="c" x1="110.93" y1="303.6" x2="110.93" y2="63" xlink:href="#a"/><linearGradient id="d" x1="352.87" y1="463.34" x2="352.87" y2="282.02" xlink:href="#a"/><linearGradient id="e" x1="192.59" y1="302.38" x2="192.59" y2="100.44" xlink:href="#a"/><linearGradient id="f" x1="489.54" y1="78" x2="489.54" y2="61" xlink:href="#a"/><linearGradient id="g" x1="284.54" y1="303" x2="284.54" y2="75.62" xlink:href="#a"/><linearGradient id="h" x1="695.54" y1="303" x2="695.54" y2="75.62" xlink:href="#a"/><linearGradient id="i" x1="488.09" y1="233" x2="488.09" y2="226" xlink:href="#a"/><linearGradient id="j" x1="488.09" y1="243" x2="488.09" y2="236" xlink:href="#a"/><linearGradient id="k" x1="488.09" y1="253" x2="488.09" y2="246" xlink:href="#a"/><linearGradient id="l" x1="488.09" y1="262" x2="488.09" y2="255" xlink:href="#a"/><linearGradient id="m" x1="641.04" y1="460" x2="641.04" y2="452" xlink:href="#a"/><linearGradient id="n" x1="488.09" y1="273" x2="488.09" y2="259" xlink:href="#a"/><linearGradient id="o" x1="555.09" y1="302" x2="555.09" y2="271.6" xlink:href="#a"/><linearGradient id="p" x1="422.09" y1="302" x2="422.09" y2="271.6" xlink:href="#a"/><linearGradient id="q" x1="324.59" y1="206" x2="324.59" y2="148" xlink:href="#a"/><linearGradient id="r" x1="324.59" y1="302" x2="324.59" y2="204.53" xlink:href="#a"/><linearGradient id="s" x1="809.71" y1="531.35" x2="809.71" y2="419" xlink:href="#a"/><linearGradient id="t" x1="864.04" y1="512.52" x2="864.04" y2="497.76" xlink:href="#a"/><linearGradient id="u" x1="776.06" y1="482" x2="776.06" y2="471.38" xlink:href="#a"/><linearGradient id="v" x1="822.84" y1="531" x2="822.84" y2="523" xlink:href="#a"/><linearGradient id="w" x1="652.01" y1="300.18" x2="652.01" y2="292.03" xlink:href="#a"/><linearGradient id="x" x1="684.86" y1="300.21" x2="684.86" y2="292" xlink:href="#a"/><linearGradient id="y" x1="670.18" y1="539.57" x2="670.18" y2="488" xlink:href="#a"/><linearGradient id="z" x1="877.97" y1="626.54" x2="877.97" y2="583" xlink:href="#a"/><linearGradient id="A" x1="929.41" y1="600.17" x2="929.41" y2="483.01" xlink:href="#a"/><linearGradient id="B" x1="940.81" y1="507.3" x2="940.81" y2="476" xlink:href="#a"/><linearGradient id="C" x1="1002.59" y1="602.27" x2="1002.59" y2="579.33" xlink:href="#a"/><linearGradient id="D" x1="946.3" y1="614.95" x2="946.3" y2="527" xlink:href="#a"/><linearGradient id="E" x1="165.59" y1="358" x2="165.59" y2="353.79" xlink:href="#a"/><linearGradient id="F" x1="269.59" y1="341" x2="269.59" y2="336.79" xlink:href="#a"/><linearGradient id="G" x1="314.59" y1="358" x2="314.59" y2="353.79" xlink:href="#a"/><linearGradient id="H" x1="344.59" y1="406" x2="344.59" y2="401.79" xlink:href="#a"/><linearGradient id="I" x1="113.09" y1="415" x2="113.09" y2="410.79" xlink:href="#a"/><linearGradient id="J" x1="136.59" y1="426" x2="136.59" y2="421.79" xlink:href="#a"/><linearGradient id="K" x1="328.09" y1="416" x2="328.09" y2="411.79" xlink:href="#a"/><linearGradient id="L" x1="472.09" y1="388" x2="472.09" y2="383.79" xlink:href="#a"/><linearGradient id="M" x1="543.59" y1="365" x2="543.59" y2="360.79" xlink:href="#a"/><linearGradient id="N" x1="664.59" y1="406" x2="664.59" y2="401.79" xlink:href="#a"/><linearGradient id="O" x1="644.09" y1="422" x2="644.09" y2="417.79" xlink:href="#a"/><linearGradient id="P" x1="581.65" y1="452.49" x2="581.65" y2="452.06" xlink:href="#a"/><linearGradient id="Q" x1="609.22" y1="539.24" x2="609.22" y2="432" xlink:href="#a"/><linearGradient id="R" x1="253.97" y1="119.91" x2="253.97" y2="106.53" xlink:href="#a"/><linearGradient id="S" x1="239.23" y1="107" x2="239.23" y2="102.21" xlink:href="#a"/><linearGradient id="T" x1="252.71" y1="142.41" x2="252.71" y2="117.66" xlink:href="#a"/><linearGradient id="U" x1="222.98" y1="248.86" x2="222.98" y2="67.6" xlink:href="#a"/><linearGradient id="V" x1="253.09" y1="122" x2="253.09" y2="115.22" xlink:href="#a"/><linearGradient id="W" x1="375.66" y1="541" x2="375.66" y2="473" xlink:href="#a"/><linearGradient id="X" x1="536.83" y1="356.91" x2="536.83" y2="343.53" gradientTransform="matrix(-1 0 0 1 1371.04 -237)" xlink:href="#a"/><linearGradient id="Y" x1="522.09" y1="344" x2="522.09" y2="339.21" gradientTransform="matrix(-1 0 0 1 1371.04 -237)" xlink:href="#a"/><linearGradient id="Z" x1="535.58" y1="379.41" x2="535.58" y2="354.66" gradientTransform="matrix(-1 0 0 1 1371.04 -237)" xlink:href="#a"/><linearGradient id="aa" x1="505.85" y1="485.86" x2="505.85" y2="304.6" gradientTransform="matrix(-1 0 0 1 1371.04 -237)" xlink:href="#a"/><linearGradient id="ab" x1="535.96" y1="359" x2="535.96" y2="352.22" gradientTransform="matrix(-1 0 0 1 1371.04 -237)" xlink:href="#a"/><linearGradient id="ac" x1="505.57" y1="541" x2="505.57" y2="473" gradientTransform="matrix(-1 0 0 1 1524 0)" xlink:href="#a"/></defs><title>Bus stop</title><path d="M995 624.54a21.77 21.77 0 1 1 21.77-21.77 21.79 21.79 0 0 1-21.77 21.77zm0-38.54a16.76 16.76 0 1 0 16.76 16.76 16.78 16.78 0 0 0-16.76-16.76z" transform="translate(-152.96 -237)" fill="url(#a)"/><ellipse cx="743.84" cy="287.15" rx="5.26" ry="6.7" fill="#6c63ff"/><path d="M743.83 296.4c-4.31 0-7.82-4.15-7.82-9.25s3.51-9.25 7.82-9.25 7.82 4.15 7.82 9.25-3.51 9.25-7.82 9.25zm0-13.4c-1.28 0-2.71 1.7-2.71 4.15s1.43 4.15 2.71 4.15c1.44 0 2.71-1.94 2.71-4.15s-1.26-4.15-2.71-4.15z" fill="#6c63ff"/><path d="M339.54 348.82a46.54 46.54 0 0 0-9.61-69.61 27.52 27.52 0 0 0 4.41-15c0-15-11.92-27.22-26.62-27.22a26.71 26.71 0 0 0-25.54 19.6 39.47 39.47 0 0 0-34-19.6c-21.91 0-39.67 18.16-39.67 40.57a41.31 41.31 0 0 0 2.43 14c-.8-.06-1.61-.13-2.43-.13-17.51.02-31.81 14.57-31.81 32.57 0 1.11.06 2.21.16 3.29a40.47 40.47 0 0 0-23.86 37.16c0 22.33 17.7 40.44 39.54 40.44a38.88 38.88 0 0 0 6.84-.62c-.12 1.35-.19 2.71-.19 4.09 0 25.06 19.86 45.37 44.37 45.37a43.47 43.47 0 0 0 25.26-8.08 32.56 32.56 0 0 0 21.45 8.08c18.3 0 33.14-15.18 33.14-33.9 0-.81-.06-1.61-.12-2.41h.12c19.6 0 35.49-16.25 35.49-36.3a36.39 36.39 0 0 0-19.36-32.3z" transform="translate(-152.96 -237)" fill="url(#b)"/><path d="M334.41 348.61a43.69 43.69 0 0 0-9-65.34 25.84 25.84 0 0 0 4.13-14.06c0-14.11-11.19-25.55-25-25.55a25.07 25.07 0 0 0-24 18.4 37.05 37.05 0 0 0-31.88-18.4c-20.56 0-37.23 17-37.23 38.08a38.78 38.78 0 0 0 2.28 13.15c-.75-.06-1.51-.12-2.28-.12-16.51 0-29.89 13.68-29.89 30.56 0 1 .05 2.07.15 3.09a38 38 0 0 0-22.44 34.87c0 21 16.62 38 37.11 38a36.49 36.49 0 0 0 6.42-.58c-.11 1.26-.18 2.54-.18 3.84 0 23.52 18.64 42.59 41.64 42.59a40.81 40.81 0 0 0 23.76-7.65 30.56 30.56 0 0 0 20.13 7.59c17.18 0 31.11-14.25 31.11-31.82 0-.76-.06-1.51-.11-2.26h.11c18.4 0 33.32-15.25 33.32-34.07a34.16 34.16 0 0 0-18.15-30.32z" transform="translate(-152.96 -237)" fill="#00897b"/><path fill="url(#c)" d="M106.09 63h9.67v240.6h-9.67z"/><path fill="#795548" d="M108.84 66.38h4.87v237.22h-4.87zM108.381 136.051l39.905-43.137 3.575 3.307-39.905 43.137zM67.343 146.097l2.903-3.911 41.411 30.736-2.903 3.911z"/><path d="M278.81 375.57a37.54 37.54 0 0 1-10.18-25.66 38.1 38.1 0 0 1 18.69-32.57 22.12 22.12 0 0 1-3.9-12.54c0-12.58 10.58-22.8 23.58-22.8a23.47 23.47 0 0 1 22.62 16.4 35.38 35.38 0 0 1 30.07-16.4c19.4 0 35.13 15.2 35.13 33.94a32.85 32.85 0 0 1-2.15 11.72c.71-.05 1.42-.1 2.15-.1 15.57 0 28.2 12.2 28.2 27.24a26.63 26.63 0 0 1-.14 2.75 33.83 33.83 0 0 1 21.12 31.1c0 18.68-15.68 33.83-35 33.83a36.39 36.39 0 0 1-6-.48c.1 1.13.17 2.27.17 3.42 0 21-17.59 38-39.29 38a40.05 40.05 0 0 1-22.37-6.76 29.83 29.83 0 0 1-19 6.76c-16.21 0-29.35-12.7-29.35-28.36 0-.68.06-1.34.11-2h-.11c-17.36 0-31.43-13.6-31.43-30.37a30.26 30.26 0 0 1 17.08-27.12z" transform="translate(-152.96 -237)" fill="url(#d)"/><path d="M282 375.45a35.93 35.93 0 0 1-9.75-24.56 36.47 36.47 0 0 1 17.89-31.17 21.17 21.17 0 0 1-3.73-12c0-12 10.1-21.8 22.56-21.8a22.47 22.47 0 0 1 21.65 15.69 33.86 33.86 0 0 1 28.79-15.69c18.57 0 33.62 14.54 33.62 32.49a31.44 31.44 0 0 1-2.03 11.2l2.06-.1c14.91 0 27 11.67 27 26.07a25.49 25.49 0 0 1-.14 2.63 32.38 32.38 0 0 1 20.22 29.79c0 17.88-15 32.38-33.51 32.38a34.83 34.83 0 0 1-5.8-.49c.1 1.08.16 2.17.16 3.27 0 20.07-16.84 36.33-37.61 36.33a38.34 38.34 0 0 1-21.38-6.49 28.55 28.55 0 0 1-18.18 6.47c-15.52 0-28.09-12.15-28.09-27.14 0-.65.05-1.29.1-1.93h-.1c-16.62 0-30.09-13-30.09-29.07a29 29 0 0 1 16.36-25.88z" transform="translate(-152.96 -237)" fill="#009688"/><path fill="#795548" d="M192.77 100.44v201.94"/><path fill="url(#e)" d="M187.09 100.44h11v201.94h-11z"/><path fill="#795548" d="M189.73 100.44h6.08v201.94h-6.08z"/><path fill="#795548" d="M193.39 160.92l-36.06-36.78"/><path fill="#795548" d="M155.109 126.25l4.341-4.256 36.057 36.778-4.341 4.256z"/><path fill="#795548" d="M193.39 192.53l37.38-26.22"/><path fill="#795548" d="M191.622 190.375l37.404-26.215 3.49 4.98-37.404 26.215z"/><path fill="#b0bec5" d="M35.24 301.17h858.85v3.65h-858.85z"/><path fill="url(#f)" d="M265.04 61h449v17h-449z"/><path fill="#00838f" d="M269.17 63.26h441.92v12.37h-441.92z"/><path fill="url(#g)" d="M276.04 75.62h17v227.38h-17z"/><path fill="#00838f" d="M279.92 75.62h11.29v224.72h-11.29z"/><path fill="url(#h)" d="M687.04 75.62h17v227.38h-17z"/><path fill="#00838f" d="M690.39 75.62h11.29v224.72h-11.29z"/><path fill="#00bcd4" d="M418.44 219.66h6.08v43.79h-6.08z"/><path opacity=".3" d="M418.44 219.66h6.08v43.79h-6.08z"/><path fill="#00bcd4" d="M552.25 219.66h6.08v43.79h-6.08z"/><path opacity=".3" d="M552.25 219.66h6.08v43.79h-6.08z"/><path fill="url(#i)" d="M407.09 226h162v7h-162z"/><path fill="url(#j)" d="M407.09 236h162v7h-162z"/><path fill="url(#k)" d="M407.09 246h162v7h-162z"/><path fill="url(#l)" d="M407.09 255h162v7h-162z"/><path fill="#00bcd4" d="M408 226.96h160.21v4.87h-160.21zM408 246.42h160.21v4.87h-160.21zM408 236.69h160.21v4.87h-160.21z"/><path d="M569.04 223c-.48-4.51-3.3-8-6.69-8h-148.57c-3.39 0-6.22 3.49-6.69 8z" fill="url(#m)"/><path d="M721.09 459.09a6.71 6.71 0 0 0-6.61-5.73h-146.84a6.71 6.71 0 0 0-6.61 5.73zM561 493.16v3a6.71 6.71 0 0 0 6.69 6.69h146.78a6.71 6.71 0 0 0 6.69-6.69v-3z" transform="translate(-152.96 -237)" fill="#00bcd4"/><path fill="#00bcd4" d="M399.13 259.77h177.95v11.83h-177.95z"/><path fill="url(#n)" d="M398.09 259h180v14h-180z"/><path opacity=".2" d="M399.13 259.77h177.95v11.83h-177.95z"/><path fill="#00bcd4" d="M415.26 271.6h13.44v29.57h-13.44z"/><path fill="#00bcd4" d="M548.85 271.6h13.44v29.57h-13.44z"/><path opacity=".1" d="M415.26 271.6h13.44v29.57h-13.44z"/><path fill="url(#o)" d="M547.09 271.6h16v30.4h-16z"/><path fill="url(#p)" d="M414.09 271.6h16v30.4h-16z"/><path opacity=".1" d="M548.85 271.6h13.44v29.57h-13.44z"/><g><rect x="302.09" y="148" width="45" height="58" rx="6.42" ry="6.42" fill="url(#q)"/><rect x="303.68" y="149.2" width="41.99" height="55.33" rx="6.42" ry="6.42" fill="#6c63ff"/><rect x="308.73" y="158.57" width="31.9" height="33.7" rx="5.42" ry="5.42" fill="#fff"/><path fill="url(#r)" d="M321.09 204.53h7v97.47h-7z"/><path fill="#00838f" d="M322.43 204.53h4.69v96.6h-4.69z"/><path d="M464.34 415.94v-3.5h1.23l.17-4.85s-.14-1.23 1.72-1.23h20.82s1.06-.38 1.16.67l.45.3v5.11h1.22v3.5a1.27 1.27 0 0 1-.88 1.28h-1.55v-2.38a5.85 5.85 0 0 0-6.35.72v2.95h-9.44v-3.66a3.74 3.74 0 0 0-4.87 0v3.66h-2.42a7.27 7.27 0 0 1-1.26-2.57z" transform="translate(-152.96 -237)" fill="#6c63ff"/><path fill="#f3f9fe" d="M313.82 176.65v-3.65h1.21v-1.22h1.22v4.87h-2.43z"/><path fill="#f3f9fe" d="M317.47 171.78h4.87v4.87h-4.87z"/><path fill="#f3f9fe" d="M324.77 171.78h4.87v4.87h-4.87z"/><path fill="#f3f9fe" d="M329.63 171.78h4.87v4.87h-4.87z"/><circle cx="317.8" cy="179.53" r="1.03" fill="#6c63ff"/><circle cx="332.94" cy="179.53" r="1.03" fill="#6c63ff"/></g><path d="M841.36 474.05c-1.72-4.42-3.56-9-7.1-12.17a30.3 30.3 0 0 0-6.8-4.19l-15.08-7.55-.49-.25a35.85 35.85 0 0 0 10.27-1.56 4.39 4.39 0 0 0 2.77-1.84 1.79 1.79 0 0 0-.93-2.49 1.33 1.33 0 0 0 1.22-1.42 1.23 1.23 0 0 0-.69-.89 1.73 1.73 0 0 0 1.15-1.66 1.59 1.59 0 0 0-.79-1.18 3.17 3.17 0 0 0 .73-.16 1.89 1.89 0 0 0 1.32-2c-.21-1.07-1.54-1.48-2.64-1.49s-2.33.11-3.15-.61a5 5 0 0 0 5.42-3c-3-.68-6.17.07-9.24.46s-6.49.36-8.92-1.58c-3-2.37-3.54-6.84-6.4-9.36a9.65 9.65 0 0 0-6.2-2.13 28.7 28.7 0 0 0-6.62.9 15.26 15.26 0 0 0-4.49 1.47c-2.56 1.28-2.2 3.07-1 4.84a7.88 7.88 0 0 0-.84 3.23c-.34 3.25-1.25 4.12-3.69 6.08a4.82 4.82 0 0 0-.59.56 1.47 1.47 0 0 0 .95 2.37 3 3 0 0 1 1.6.92 11.82 11.82 0 0 1 1.64 3.28 3.91 3.91 0 0 0 2.5 2.5 2.86 2.86 0 0 0 1.92-.36 3.52 3.52 0 0 0 .21.39c1 1.36 2.78 1.79 4.43 2.13l3.41.69a9.32 9.32 0 0 0-.59 6.94 42.32 42.32 0 0 1 1.59 5.45c.3 2 .1 4.1.79 5.93-2 0-3.91 0-5.87-.07a13.16 13.16 0 0 1-5.74-1.18 21 21 0 0 0-2.46-1.4 2.4 2.4 0 0 0-2.63.41c-.62.71-.21 2.14.73 2.13.14.87-.59 1.63-1.34 2.08a6 6 0 0 0-2.11 1.53c-.48.73-.2 2 .67 2.07a1 1 0 0 0 1.67 1l-.11 1.78a3.16 3.16 0 0 1 2.28-.85l.71 2.51a2.21 2.21 0 0 0 1.81-1.31l.23.07a13.59 13.59 0 0 0 5-.11 124.94 124.94 0 0 1 16.23-1c.75 0 1.85.13 3 .19a20 20 0 0 1 3.42 3.52c1.28 1.69 2.43 3.71 4.43 4.42a4.92 4.92 0 0 0 1.57.26l-.21.3a5.38 5.38 0 0 1-2 1.45 83 83 0 0 1-8.89 3.78c-3.38 1.21-7.26 2.59-8.54 5.94-.83 2.19-.28 4.64.34 6.9 2.32 8.57 5.6 17.31 12.19 23.25l4.38-1.75 2.08 3.13c-3 .42-5.67.55-8.57 2.18a3.61 3.61 0 0 0-1.4 1.18 1.41 1.41 0 0 0 .1 1.71 2.12 2.12 0 0 0 1.46.4l20.78.44c-.88-2.13-1.82-4.35-3.58-5.84a4.6 4.6 0 0 0-2.59-1.19c-1.16-1.31-2.3-2.67-3.51-3.94l2.31-.92q-6.87-9.99-13.15-20.37c6.59-4.78 15.47-4.46 23.21-7a13.47 13.47 0 0 0 5.69-3.18c2.8-2.9 3.16-7.31 3.36-11.33.06-1.19 0-2.58-.77-3.39z" transform="translate(-152.96 -237)" fill="url(#s)"/><path d="M874.85 509.6l-8.93-10.89c-.38-.46-.84-1-1.44-.94a1.91 1.91 0 0 0-1.16.65c-.63.59-1.65 1.43-2.44 2.3a61.67 61.67 0 0 0-6.17.07c-2.55.22-2.42 2-2.12 4.33a2.53 2.53 0 0 0 .47 1.35 2.85 2.85 0 0 0 2.36.63l8.53-.34a78.8 78.8 0 0 0 8.18 5.11 4.38 4.38 0 0 0 1.89.66 1.56 1.56 0 0 0 1.58-1 2.32 2.32 0 0 0-.75-1.93z" transform="translate(-152.96 -237)" fill="url(#t)"/><path d="M777.69 477.9c.33-.25.75-.33 1.08-.57s.53-.77.22-1a.92.92 0 0 0-.73-.12q-1.38.17-2.75.45c.43-.39 1.08-.43 1.6-.7s.87-1.08.38-1.41a1.11 1.11 0 0 0-.88 0 21.24 21.24 0 0 1-2.32.51c.13-.73 1.58-2.1 1.38-2.79-.3-1-2.24-.78-3.08-.74a4.15 4.15 0 0 0-2.09.48 1.43 1.43 0 0 0-.57 1.86c.23.34.65.55.8.93.31.83-.94 1.69-.58 2.51.29.66 1.44.68 1.59 1.39a1.93 1.93 0 0 1-.08.73 2.44 2.44 0 0 0 1.93 2.57 5.26 5.26 0 0 0 3.42-.56 13.26 13.26 0 0 0 5.32-4.47 9.9 9.9 0 0 0-4.83 2.08c-.31-.36-.13-.9.19-1.15z" transform="translate(-152.96 -237)" fill="url(#u)"/><path d="M792 475a12.73 12.73 0 0 1-4.7.1 3.91 3.91 0 0 1-3.14-3.13 3.87 3.87 0 0 1 2.54-3.62 11.33 11.33 0 0 1 4.65-.57l24.3.4c-.48 1.46-.86 4.54-2.13 5.54s-4.68.37-6.31.38a117 117 0 0 0-15.21.9z" transform="translate(-152.96 -237)" fill="#f6b9ad"/><path d="M782 438a4.51 4.51 0 0 0-.55.53 1.38 1.38 0 0 0 .89 2.22 2.81 2.81 0 0 1 1.5.86 11.07 11.07 0 0 1 1.54 3.07 3.67 3.67 0 0 0 2.35 2.35 3.28 3.28 0 0 0 2.81-1.09c.75-.73 1.3-1.64 2-2.38a39.94 39.94 0 0 1 3.31-2.55 10.46 10.46 0 0 0 3.49-5.57 6.29 6.29 0 0 0-.42-4.58c-1.82-3.17-8.45-4.69-11.58-2.74-1.5.93-1.74 2.56-1.91 4.19-.34 3.07-1.19 3.88-3.43 5.69z" transform="translate(-152.96 -237)" fill="#f6b9ad"/><path d="M797.33 450.52c1.5.56 3.46.22 4.23-1.18 1.1-2-.86-4.43-.66-6.72.17-1.95 1.83-3.38 2.78-5.09a8.48 8.48 0 0 0-.27-8.27 10.88 10.88 0 0 0-6.89-4.86c-1.73-.41-3.79-.35-5 .95-1.51 1.61-1 4.16-.68 6.34a24.54 24.54 0 0 1 .12 6.16c-.17 1.64-1.22 3.85-.79 5.48.35 1.32 1.91 2.49 2.78 3.46 1.27 1.39 2.55 3.04 4.38 3.73z" transform="translate(-152.96 -237)" fill="#70b1e8"/><path d="M794.55 436.68a18.88 18.88 0 0 1 1.43-3.61 2.39 2.39 0 0 1 .67-.89.89.89 0 0 1 1 0 1.27 1.27 0 0 1 .35.61 5.76 5.76 0 0 1 .38 2.8 2.67 2.67 0 0 1-1.67 2.14 1.76 1.76 0 0 1-2.24-1.18" transform="translate(-152.96 -237)" fill="none"/><path d="M788.52 441.35a6.51 6.51 0 0 1-2.66 3.12" transform="translate(-152.96 -237)" stroke="#f3f9fe" stroke-miterlimit="10" fill="none"/><path d="M796.46 456.23a39.65 39.65 0 0 1 1.49 5.1c.33 2.14 0 4.48 1.11 6.35 1.33 2.25 4.17 3 6.57 4a18.8 18.8 0 0 1 7.54 5.93c1.19 1.59 2.28 3.48 4.15 4.14a7.77 7.77 0 0 0 4.71-.33 101.83 101.83 0 0 0 18.17-7.29c-1.61-4.14-3.34-8.44-6.65-11.4a28.39 28.39 0 0 0-6.37-3.92l-14.18-7.08c-3.39-1.7-8.38-4.88-12.35-4.42-4.31.51-5.21 5.48-4.19 8.92z" transform="translate(-152.96 -237)" fill="#6c63ff"/><path d="M818.59 482.26a5 5 0 0 1-1.9 1.36 77.73 77.73 0 0 1-8.33 3.54c-3.16 1.13-6.8 2.43-8 5.57-.78 2.05-.26 4.34.31 6.46 2.17 8 5.24 16.22 11.42 21.78l10.75-4.3q-6.37-9.45-12.3-19.19c6.17-4.47 14.49-4.17 21.75-6.52a12.62 12.62 0 0 0 5.33-3c2.62-2.72 3-6.85 3.15-10.62.06-1.28 0-2.82-1.1-3.48a3.55 3.55 0 0 0-2.65-.07 87.53 87.53 0 0 0-10.7 3.31q-2.66 1-5.25 2.2c-2.07 1.01-1.3 1.36-2.48 2.96z" transform="translate(-152.96 -237)" fill="#6c63ff"/><path d="M831.64 497.89a20.81 20.81 0 0 0 4.13 4.17 19 19 0 0 0 5.34 2.19l14.33 4.23a6.22 6.22 0 0 1-1.31-5.8 18.37 18.37 0 0 1 2.72-5.55 50.9 50.9 0 0 1-11-.77 17.09 17.09 0 0 1-9.48-5.23c-1.18-1.39-2.22-3.15-4-3.63-1.4-.38-7.5 1.36-7.49 2.86 0 .94 2.7 3 3.34 3.69q1.78 1.87 3.42 3.84z" transform="translate(-152.96 -237)" fill="#6c63ff"/><path d="M824.24 521.54a1.61 1.61 0 0 1 .54 1c0 .59-.66 1-1.25 1s-1.18-.13-1.76-.08c-.78.07-1.57.53-2.29.24a2.44 2.44 0 0 1-1-1l-3.35-5c1.92-1.14 3.07-2.63 4.84-.9 1.5 1.46 2.85 3.2 4.27 4.74z" transform="translate(-152.96 -237)" fill="#f6b9ad"/><path d="M810.13 524.31a3.38 3.38 0 0 0-1.31 1.1 1.32 1.32 0 0 0 .1 1.6 2 2 0 0 0 1.37.37l19.47.42c-.82-2-1.7-4.07-3.35-5.47-2.49-2.1-4.35-.72-6.91-.28-3.39.6-6.24.5-9.37 2.26z" transform="translate(-152.96 -237)" fill="#6c63ff"/><path d="M860.23 499.11a3.59 3.59 0 0 1 1.77.29 3.3 3.3 0 0 1 1.33 2.5 5.2 5.2 0 0 0 .92 2.75l-10.9.43a2.67 2.67 0 0 1-2.21-.59 2.37 2.37 0 0 1-.44-1.26c-.28-2.21-.4-3.85 2-4.06s5.04-.05 7.53-.06z" transform="translate(-152.96 -237)" fill="#f6b9ad"/><path d="M860.76 496.94a1.79 1.79 0 0 1 1.09-.61c.56 0 1 .45 1.34.88l8.37 10.21a2.18 2.18 0 0 1 .71 1.81 1.46 1.46 0 0 1-1.48.93 4.1 4.1 0 0 1-1.77-.62 73.84 73.84 0 0 1-8.94-5.7c-1.26-.94-3.12-1.71-2.62-3.24.42-1.26 2.35-2.76 3.3-3.66z" transform="translate(-152.96 -237)" fill="#6c63ff"/><path d="M825.1 463.11c1.15 2.07.95 5.1-1.07 6.34a7 7 0 0 1-2.7.78c-9.89 1.45-20 2.91-29.82 1.21a3.85 3.85 0 0 0-2.45.1c-.94.5-1.25 1.65-1.6 2.65s-1 2.1-2.1 2.11l-.66-2.35a3 3 0 0 0-2.13.79l.11-1.67a.92.92 0 0 1-1.56-.94c-.82-.05-1.08-1.25-.63-1.94a5.57 5.57 0 0 1 2-1.43c.71-.42 1.39-1.14 1.26-1.95-.89 0-1.27-1.33-.69-2a2.25 2.25 0 0 1 2.46-.39 19.71 19.71 0 0 1 2.31 1.31 12.33 12.33 0 0 0 5.37 1.1 91.48 91.48 0 0 0 23.15-2 6.66 6.66 0 0 1-4-4.24c2-.82 5.25-3 7.46-2.28 1.9.63 4.33 3.07 5.29 4.8z" transform="translate(-152.96 -237)" fill="#f6b9ad"/><path d="M775.77 471.67a3.89 3.89 0 0 0-2 .45 1.34 1.34 0 0 0-.54 1.75c.21.32.61.51.75.87.29.78-.88 1.59-.54 2.35s1.35.63 1.49 1.3a1.81 1.81 0 0 1-.08.68 2.29 2.29 0 0 0 1.81 2.41 4.93 4.93 0 0 0 3.21-.52 12.43 12.43 0 0 0 5-4.19 9.28 9.28 0 0 0-4.53 1.95c-.3-.24-.14-.75.17-1s.7-.31 1-.54.49-.72.21-1a.86.86 0 0 0-.68-.11q-1.29.16-2.57.42c.41-.37 1-.41 1.5-.66s.81-1 .36-1.32a1 1 0 0 0-.82 0 19.87 19.87 0 0 1-2.17.47c.12-.68 1.48-2 1.29-2.62-.26-.95-2.07-.72-2.86-.69z" transform="translate(-152.96 -237)" fill="#f6b9ad"/><path d="M787.12 424.78a14.29 14.29 0 0 1 4.2-1.38 26.89 26.89 0 0 1 6.2-.85 9 9 0 0 1 5.81 2c2.68 2.35 3.21 6.54 6 8.77 2.27 1.81 5.47 1.85 8.35 1.48s5.82-1.07 8.66-.44a4.72 4.72 0 0 1-5.07 2.85c.77.68 1.92.56 2.95.57s2.27.39 2.47 1.4a1.77 1.77 0 0 1-1.24 1.84 5.17 5.17 0 0 1-2.39.1 1.57 1.57 0 1 1 .23 2.73 1.18 1.18 0 1 1 .3 2.13c1.06-.1 1.68 1.38 1.2 2.33a4.11 4.11 0 0 1-2.59 1.69c-9.13 2.89-19 1-28.39-.94-1.54-.32-3.23-.72-4.15-2a6.42 6.42 0 0 1-.88-3.42c-.22-3.41 2.26-9.09-.26-11.68-2.22-2.26-5.15-5.31-1.4-7.18z" transform="translate(-152.96 -237)" fill="#e96857"/><circle cx="634.57" cy="196.33" r=".68" fill="#fff"/><path d="M686.59 294c-1 0-2 0-3-.11l-43.15-2.89v-1.93l43.24 2.93c5.34.36 11.33.21 14.72-6l.92 1.27c-3.1 5.64-7.96 6.73-12.73 6.73z" fill="url(#v)"/><path d="M686.59 293.09c-1 0-2 0-3-.07l-43.19-1.79v-1.22l43.19 1.79c5.34.22 11.33.13 14.72-3.75l.92.8c-3.01 3.55-7.87 4.24-12.64 4.24z" fill="#00bcd4"/><circle cx="652.01" cy="296.1" r="4.08" fill="url(#w)"/><circle cx="652.01" cy="296.1" r="3.63" fill="#00bcd4"/><circle cx="684.86" cy="296.1" r="4.1" fill="url(#x)"/><circle cx="684.86" cy="296.1" r="3.63" fill="#00bcd4"/><g><g><path d="M702 500.69h-7a3.85 3.85 0 0 1-1.92-3.67s-5.43-2.89-7.69-2.19l-2.94-6.53s-3.71-1.28-4.28 1.41c0 0-1.11 9.88-1.57 10.82 0 0-1.05 13.35-19.61 8.21 0 0-5.2-2.47-9.84-.25 0 0-2.38.28-6.9-3.11 0 0-5 4.57 1.13 10.53 0 0-2.26 4.68-.23 9.12l2.6 10.57s.34 2.81 1.36 2.57h9.33a3 3 0 0 0-1.6-2l-1.15-.12v-5.5s1.18 2.7 6.38-2.21a32.42 32.42 0 0 0 17.52 2.09l1.11 6.65s.54 2.46 1.56 2.46h8a3.39 3.39 0 0 0-1.7-2.8l-1.13-.47-1.11-6s6.22 0 8.6-9.44l-.34-11.38s5.77-.79 8.94-2.9c-.01.08 2.93-.55 2.48-5.86z" transform="translate(-152.96 -237)" fill="url(#y)"/><path d="M700.27 501.85h-6.63a3.51 3.51 0 0 1-1.82-3.36s-5.14-2.64-7.28-2l-2.78-6s-2.57-1.17-3.1 1.29c0 0-.11 9-.53 9.9 0 0-2.89 13.13-20.43 8.43 0 0-4.92-2.26-9.31-.23 0 0-2.25 1.17-6.53-1.93 0 0-4.71 2.35 1.07 7.81 0 0-2.14 4.28-.21 8.34l2.46 10.59s.32 2.57 1.28 2.35h6a2.76 2.76 0 0 0-1.51-1.83l-1.08-.11v-5s3 .64 7.93-3.85c0 0 8.94 5.14 18.46 3.74l1 6.09s.51 2.25 1.47 2.25h5.67a3.08 3.08 0 0 0-1.6-2.56l-1.07-.43-.11-6.36s5.88 0 8.13-8.64l-.32-10.42s5.46-.73 8.45-2.65c.04.01 2.82-.56 2.39-5.42z" transform="translate(-152.96 -237)" fill="#ff9800"/><path d="M652.29 531.44a38.34 38.34 0 0 0 3.65-1.22v5.69a7.08 7.08 0 0 1 1.93 2.43h-4.07s.88-3.09-1.55-4.7z" transform="translate(-152.96 -237)" fill="#ff9800"/><path d="M683.92 530.11s2.43-1.55 3.65-2.25v8h.72s1.5 0 1.93 2.43h-4.07a6.06 6.06 0 0 0-2.23-4.7z" transform="translate(-152.96 -237)" fill="#ff9800"/><path d="M683.48 491.92l1.82 3a11.45 11.45 0 0 1 2.89.64l-.64-4.49s-2.25-3.43-4.07.85z" transform="translate(-152.96 -237)" fill="#ff9800"/></g><circle cx="538.25" cy="262.82" r=".72" fill="#fff"/></g><ellipse cx="725.55" cy="367.77" rx="5.37" ry="5.97" fill="#6c63ff"/><ellipse cx="725.55" cy="367.77" rx="5.37" ry="5.97" opacity=".6"/><path d="M878 624.78a20 20 0 1 1 20-20 20 20 0 0 1-20 20zm0-35.41a15.4 15.4 0 1 0 15.4 15.4 15.42 15.42 0 0 0-15.4-15.4z" transform="translate(-152.96 -237)" fill="#6c63ff"/><path fill="#6c63ff" d="M723.364 366.601l7.008-30.204 5.133 1.191-7.008 30.204zM821.662 332.334l5.133-1.191 7.008 30.204-5.133 1.191z"/><path opacity=".6" d="M723.364 366.601l7.008-30.204 5.133 1.191-7.008 30.204zM821.662 332.334l5.133-1.191 7.008 30.204-5.133 1.191z"/><path d="M995.37 622.74a20 20 0 1 1 20-20 20 20 0 0 1-20 20zm0-35.41a15.4 15.4 0 1 0 15.4 15.4 15.42 15.42 0 0 0-15.4-15.41z" transform="translate(-152.96 -237)" fill="#6c63ff"/><path d="M878 626.54a21.77 21.77 0 1 1 21.77-21.77 21.79 21.79 0 0 1-21.77 21.77zm0-38.54a16.76 16.76 0 1 0 16.76 16.76 16.78 16.78 0 0 0-16.76-16.76z" transform="translate(-152.96 -237)" fill="url(#z)"/><path d="M878 624.78a20 20 0 1 1 20-20 20 20 0 0 1-20 20zm0-35.41a15.4 15.4 0 1 0 15.4 15.4 15.42 15.42 0 0 0-15.4-15.4zM995.37 622.74a20 20 0 1 1 20-20 20 20 0 0 1-20 20zm0-35.41a15.4 15.4 0 1 0 15.4 15.4 15.42 15.42 0 0 0-15.4-15.41z" transform="translate(-152.96 -237)" opacity=".6"/><path d="M729.79 338.73s16.43 30.56 23.77 37.86h42.11s2.69.79 11.48-2.13l2.24-21.46s4.79-22.69 30.63-22.69h18.79v-16.68l-81.91 9.25s-7.49 8.93-1.43 13.08l15.66 17.16s1 8.93-4.11 8.29l-29.65-1.6-9.86-43.22-17.72 13.73s-4.3 6.18 0 8.41z" fill="#6c63ff"/><path fill="#6c63ff" d="M739.2 291.89l-4.76 38.47h16.1v-40.55l-11.34 2.08z"/><path fill="#6c63ff" d="M728.64 293.87h19.06l-4.13 8.51h-14.93v-8.51z"/><path fill="#70b1e8" d="M743.04 292.25l4.47 14.68"/><path d="M775.53 326.39l11.83-20.39s46.71-7.34 61.49-3.51c0 0 14.78 12.92 9.46 17z" fill="#6c63ff"/><path d="M775.53 326.39l11.83-20.39s46.71-7.34 61.49-3.51c0 0 14.78 12.92 9.46 17z" fill="#fff" opacity=".4"/><path d="M959.76 541.41a76.51 76.51 0 0 0-5.76-27.93c-1.28-3.09-3.07-6.37-6.23-7.46a6.34 6.34 0 0 0-1.15-.27c0-.42.08-.84.11-1.25l1-13.38c.46-6.25-5.72-7.64-10.93-8.09-4.9-.42-10.29 4.78-13.25 8.35-.93 1.12-1.9 2.37-1.86 3.82.05 1.93 1.81 3.28 3.15 4.66a13.66 13.66 0 0 1 3.66 7.37c.22 1.45.23 3 1 4.25 1.09 1.78 3.24 2.3 5.42 2.4-2 3.69-.66 5.94-2.36 9.78s-5.28 7.75-9.62 7.6c-2.29-.08-4.37-1.25-6.37-2.35s-4.14-2.2-6.43-2.14a5.48 5.48 0 0 0-2.63.8 4.48 4.48 0 1 0-1.25 5.55 9.15 9.15 0 0 0 4.51 2.73 33.69 33.69 0 0 0 23.75-1.7 12.06 12.06 0 0 0 2.08 8.07c-5.56 1.39-11.19 3.85-15.71 5.13-3.37 1-7.13 2.24-8.58 5.42-1 2.11-.63 4.55-.28 6.84l3.56 23.5a12.42 12.42 0 0 0 1.09 4 5.92 5.92 0 0 0 1.15 1.5 53.52 53.52 0 0 1-4.17 5.31c-1.1 1-2.38 2.32-2.08 3.8.38 1.87 2.82 2.3 4.73 2.31l7.5.07a4.46 4.46 0 0 0 2.81-.6c1-.79 1.16-2.27 1.2-3.57.08-2.65.13-5.4-.91-7.83a6.08 6.08 0 0 0 1.28-2.53c1.35-5.94-6.05-10.85-5.72-16.93.26-4.79 5.27-8 10-8.77s9.64-.06 14.31-1.15c3.84-.9 7.67-3.74 8.55-7.36l.76.06c3.2.17 2.88.57 3.51-2.52a36.07 36.07 0 0 0 .16-7.49z" transform="translate(-152.96 -237)" fill="url(#A)"/><path d="M925.65 491.36c-.89 1.07-1.83 2.28-1.79 3.68 0 1.85 1.74 3.16 3 4.49a13.14 13.14 0 0 1 3.52 7.09c.21 1.4.22 2.89 1 4.09 1.41 2.29 4.64 2.42 7.33 2.29 2-.1 4.24-.29 5.66-1.73s1.56-3.45 1.7-5.36l.93-12.91c.44-6-5.5-7.35-10.52-7.78-4.72-.38-7.98 2.71-10.83 6.14z" transform="translate(-152.96 -237)" fill="#f6b9ad"/><path d="M953 514.54c-1.23-3-3-6.13-6-7.17-4-1.35-8.21 1.63-10.27 5.26s-2.7 7.9-4.39 11.72-5.08 7.46-9.25 7.31c-2.2-.08-4.21-1.2-6.13-2.26s-4-2.12-6.19-2.05-4.51 1.69-4.53 3.89c0 2.53 2.71 4.12 5.13 4.85a32.42 32.42 0 0 0 22.85-1.63c-.67 5.44 3.19 10.64 8 13.25a31 31 0 0 0 12.78 3.39c3.08.16 2.77.55 3.38-2.43a34.71 34.71 0 0 0 .24-7.26 73.62 73.62 0 0 0-5.62-26.87z" transform="translate(-152.96 -237)" fill="#6c63ff"/><path d="M921.14 547.14c-3.24.92-6.86 2.15-8.25 5.22-.92 2-.6 4.38-.27 6.58l3.38 22.62a12 12 0 0 0 1 3.89 6 6 0 0 0 11.15-1.45c1.3-5.72-5.83-10.44-5.51-16.29.25-4.61 5.07-7.67 9.62-8.44s9.28-.06 13.77-1.11 9-4.86 8.36-9.43a8.47 8.47 0 0 0-4.76-6c-8.26-4.32-20.26 2.08-28.49 4.41z" transform="translate(-152.96 -237)" fill="#6c63ff"/><path d="M914.18 592c-1.06 1-2.29 2.23-2 3.65.37 1.8 2.71 2.21 4.55 2.23l7.21.07a4.29 4.29 0 0 0 2.7-.58c1-.76 1.11-2.19 1.15-3.44.08-2.67.14-5.45-1-7.86-4.16-8.78-9.2 2.73-12.61 5.93z" transform="translate(-152.96 -237)" fill="#6c63ff"/><circle cx="778.32" cy="251.92" r="1.99" fill="#f3f9fe"/><path d="M806.04 256.43c0-10.43-8.19-17.43-18.61-17.43-8.23 0-15.16 3.45-17.74 14.59h8.86v16.71h23.31c2.55-5.57 4.18-9.52 4.18-13.87z" fill="url(#B)"/><path d="M803.7 256.2c0-9.1-7.11-15.22-16.22-15.22-7.19 0-13.24 3-15.5 12.74h7.74v14.6h20.36c2.24-4.87 3.62-8.32 3.62-12.12z" fill="#f44336"/><path d="M932.4 500.42a4.62 4.62 0 0 1-2.54 3" transform="translate(-152.96 -237)" stroke="#f3f9fe" stroke-miterlimit="10" stroke-width="1.05" fill="none"/><path d="M827.18 343.46s24.38-7.27 44.9 15l-24.38 6.84-14.11-6.84z" fill="url(#C)"/><path d="M828.47 344.06s23-6.85 42.32 14.11l-23 6.45-13.3-6.45z" fill="#6c63ff"/><rect x="801.22" y="354.25" width="46.5" height="16.48" rx="5.87" ry="5.87" fill="#6c63ff"/><path d="M929.37 559.55s-7.71 9.2-1.47 13.47l16.1 17.67s1 9.2-4.23 8.54l-30.53-1.64-7-30.84v-32.25a7.49 7.49 0 0 0-8.85-7.37l-2.83.52-.25 2h-10.63v8.77h9.53l-3.05 24.67-5.3 4.1s-4.43 6.35 0 8.65c0 0 16.92 31.47 24.47 39h43.37s2.77.82 11.83-2.19l.41-3.89a7.31 7.31 0 0 0 .82 0h33.18a7.37 7.37 0 0 0 7.35-7.35v-2.21a7.37 7.37 0 0 0-7.35-7.35h-32.24l.13-1.24s4.93-23.36 31.53-23.36h19.35v-17.25z" transform="translate(-152.96 -237)" fill="url(#D)"/><path d="M929.85 559.88s-7.49 8.93-1.43 13.08l15.66 17.16s1 8.93-4.11 8.29l-29.65-1.6-6.83-30v-31.26a7.28 7.28 0 0 0-8.59-7.16l-2.74.5-.24 2h-10.32v8.52h9.26l-3 24-5.15 4s-4.3 6.17 0 8.4c0 0 16.43 30.56 23.77 37.86h42.11s2.69.79 11.48-2.13l.39-3.77a7.1 7.1 0 0 0 .8 0h32.23a7.16 7.16 0 0 0 7.14-7.14v-2.21a7.16 7.16 0 0 0-7.14-7.14h-31.26l.13-1.2s4.79-22.69 30.63-22.69h18.79v-16.76z" transform="translate(-152.96 -237)" opacity=".2"/><path fill="url(#E)" d="M109.09 353.79h113v4.21h-113z"/><path fill="url(#F)" d="M233.09 336.79h73v4.21h-73z"/><path fill="url(#G)" d="M294.09 353.79h41v4.21h-41z"/><path fill="url(#H)" d="M336.09 401.79h17v4.21h-17z"/><path fill="url(#I)" d="M101.09 410.79h24v4.21h-24z"/><path fill="url(#J)" d="M121.09 421.79h31v4.21h-31z"/><path fill="url(#K)" d="M315.09 411.79h26v4.21h-26z"/><path fill="url(#L)" d="M426.09 383.79h92v4.21h-92z"/><path fill="url(#M)" d="M528.09 360.79h31v4.21h-31z"/><path fill="url(#N)" d="M649.09 401.79h31v4.21h-31z"/><path fill="url(#O)" d="M617.09 417.79h54v4.21h-54z"/><path fill="#b0bec5" d="M110.66 354.69h110.7v2.43h-110.7zM235.96 337.66h68.12v2.43h-68.12zM298 354.69h34.06v2.43h-34.06zM428.17 385.11h88.8v2.43h-88.8zM530.35 361.99h26.76v2.43h-26.76zM103.36 411.87h20.68v2.43h-20.68zM124.04 422.82h25.55v2.43h-25.55zM317.47 411.87h20.68v2.43h-20.68zM338.15 402.14h13.38v2.43h-13.38zM620.38 417.95h45.01v2.43h-45.01zM652.01 402.14h24.33v2.43h-24.33z"/><path d="M583 452.41l-2.78-.35a4.48 4.48 0 0 0 2.78.35z" transform="translate(-152.96 -237)" fill="url(#P)"/><path d="M636.14 522.68c-.84-4.07-2.69-8.13-3.64-12.17-.89-3.76-.86-7.51-2-11.2-.54-1.75-2.13-3.49-2.75-5.21l.13-.51a4 4 0 0 0 3-6.23c-1.3-1.9-3.88-2.31-6.16-2.55l-.77-.08a7.06 7.06 0 0 1-3.89-5 30.9 30.9 0 0 1-.51-6.82 12.24 12.24 0 0 0-1.64-6.56 7.37 7.37 0 0 0-1.9-1.76 6.91 6.91 0 0 0 0-.79c0-.64-6.89-1.92-7.67-2.07-1.59-.31-3.28-.65-5-.84-.12-1.53.85-2.29 2.07-3.19a7.89 7.89 0 0 1 2-.81c2.53-.94 3.88-4.64 5-7.1a3 3 0 0 0 .37-2.25c-.19-.5-1.63-.86-2-1.29-1-1.3.22-3.09.21-4.71 0-.34 1-.65.93-.95.7-.26.3-.74.57-1.42.53-1.35-1.36-2.81-2.28-3.93-1.2-1.48-3-3-4.8-2.28-.82.34-1.43 1.14-2.3 1.33-1.47.33-2.64-1.14-4-1.86-2.35-1.27-5.42 0-7 2.14s-2.1 4.88-2.54 7.51-.9 5.38-2.46 7.54c-1 1.37-6.56 3.42-8.19 3.71 4.54.57 12.08 1.14 16.61 1.7a5.41 5.41 0 0 1 .15 1.48c0 .9.59 3 .37 5.45a11.31 11.31 0 0 1-1.39.48c-2.25.6-4.68.79-6.69 2.08a12.66 12.66 0 0 0-4 5 58.7 58.7 0 0 0-6.09 27.48c.66-.66 1.33-1.32 2-2a19.88 19.88 0 0 0-.74 3.71c7 .74 13 1 19.76 2.81a2.48 2.48 0 0 1 2.43 2.81l1.15 30.46.13.09a1.53 1.53 0 0 0-.6 1.24 1.46 1.46 0 0 0 .7.83c3.55 2.45 10 2.5 14.31 1.88-.17 0-4.89-5.85-5.58-6.43l-.41-.36a9 9 0 0 0 1.07-2.62 39.14 39.14 0 0 0 .64-5.23c.63-6.07 1.93-9.81 3.64-15.67a84 84 0 0 1 11 17.6l-.21 2.34a44.63 44.63 0 0 0 13.4-1.18c-.89-.87-2.11-3.09-4.43-4.6zm-20.56-32.62a6.92 6.92 0 0 0-.56-.44h1.34q-.4.21-.78.44zm-4.72-20.23c1 2 2.19 3.88 2.54 4.78a16.94 16.94 0 0 1 1.29 9.13l-3.68-.39a6.48 6.48 0 0 0 1-5.55c-.54-1.68-1.82-3-2.82-4.44l-.12-.17a2.17 2.17 0 0 1 1.8-3.36z" transform="translate(-152.96 -237)" fill="url(#Q)"/><path d="M617.73 466.79a12 12 0 0 1 1.61 6.43 30.29 30.29 0 0 0 .5 6.68c.56 2.17 2 4.28 4.09 5 1 .32 2.41.69 2.3 1.73-.08.74-.94 1.1-1.67 1.24a16.66 16.66 0 0 1-10.79-1.5c1.75-3.54 1-7.83-.43-11.5-.78-1.94-5.46-8.78-3.91-10.5 2.07-2.37 7.04.55 8.3 2.42z" transform="translate(-152.96 -237)" fill="#f6b9ad"/><path d="M610.08 442.48c0 1.59-.18 3.34.78 4.62a5.7 5.7 0 0 1 .93 1.26 3 3 0 0 1-.36 2.21c-1.09 2.41-2.41 5.06-4.89 6a7.73 7.73 0 0 0-2 .79c-1.26.93-1.16 2.8-1 4.37s0 3.51-1.49 4.12c-2.55-1.17-5.63 2.23-5.77-.57-.07-1.34.71-7.72.78-9.06.12-2.35-1.44-4.4-2.74-6.36s-2.45-4.44-1.47-6.58c.71-1.54 2.34-2.43 3.91-3.07 4.18-1.75 13.24-5.21 13.32 2.27z" transform="translate(-152.96 -237)" fill="#f6b9ad"/><path d="M608.86 441.78a2.9 2.9 0 0 0 2.68-1.61c.52-1.32-.36-2.75-1.25-3.85-1.18-1.45-3-3-4.71-2.24-.81.34-1.4 1.12-2.25 1.31-1.44.32-2.59-1.12-3.88-1.82-2.3-1.25-5.32 0-6.89 2.09s-2.06 4.78-2.49 7.36-.88 5.27-2.41 7.39-4.49 3.47-6.84 2.32l18.65 2.33c1.12-.87.76-2.7-.11-3.82s-2.12-1.95-2.77-3.21-.22-3.25 1.19-3.42c1.8-.21 3.18 2.69 4.82 1.93a2.25 2.25 0 0 0 .95-2.27 5.54 5.54 0 0 1 .1-2.59c.85-1.87 3.83.12 5.21.1z" transform="translate(-152.96 -237)" fill="#3d213c"/><circle cx="454.27" cy="207.39" r="1.05" fill="#fff"/><path d="M588.51 465a12.41 12.41 0 0 0-3.95 4.94 53.67 53.67 0 0 0-6.07 25.86c4.06-4.06 8.55-8.34 14.25-9.07 4-.51 8 .82 12 .21a9.53 9.53 0 0 0 5.73-2.91 6.48 6.48 0 0 0 1.47-6.1c-.53-1.65-1.78-2.93-2.77-4.35l-.11-.17a2.14 2.14 0 0 1 1.9-3.3 4.32 4.32 0 0 0 2.53-.68 5.94 5.94 0 0 0 2.4-5.17c0-.63-6.75-1.88-7.52-2a35.74 35.74 0 0 0-8.05-1c-1.9.08-3.41 1.21-5.25 1.7-2.21.62-4.59.81-6.56 2.04z" transform="translate(-152.96 -237)" fill="#6c63ff"/><path d="M579.74 497.54a136.46 136.46 0 0 1 20.36 3.73 2.43 2.43 0 0 1 2.38 2.76l1.13 29.86a4 4 0 0 0 4.8 0 7.17 7.17 0 0 0 2.65-4.3 38.36 38.36 0 0 0 .62-5.13c.87-8.44 5.06-16.24 6.18-24.65.46-3.49.2-7.49-2.4-9.86-1.75-1.59-4.2-2.1-6.53-2.5a132.09 132.09 0 0 0-20.7-2.35c-5.18-.02-8.11 8.14-8.49 12.44z" transform="translate(-152.96 -237)" fill="#6c63ff"/><path d="M615.88 538.84a17.12 17.12 0 0 1-12.06-2.84 1.43 1.43 0 0 1-.68-.81 1.5 1.5 0 0 1 .59-1.21c.82-.85 2.21-3 3.41-3.23s2.43 1.06 3.27 1.77c.68.59 5.3 6.35 5.47 6.32z" transform="translate(-152.96 -237)" fill="#6c63ff"/><path d="M634.78 522.64l-6.6 3.11a93.55 93.55 0 0 0-15.23-22.38c-1.22-1.33-2.54-2.73-2.86-4.51a6.77 6.77 0 0 1 1-4.42 12.66 12.66 0 0 1 6.16-5.37c1.79-.75 6.27-2 8-.53 1 .9 1.6 3.85 2.07 5.13q1 2.66 1.81 5.38c1.12 3.62 2.08 7.29 3 11l2.65 12.59z" transform="translate(-152.96 -237)" fill="#6c63ff"/><path d="M640 526.53a37.55 37.55 0 0 1-12.16 1.16l.38-4.3a3.71 3.71 0 0 1 .4-1.62c2.47-4.15 9.56 2.9 11.38 4.76z" transform="translate(-152.96 -237)" fill="#6c63ff"/><path d="M596.45 481.45a7.43 7.43 0 0 0 2.87.7l25.08 2.68c2.24.24 4.77.64 6 2.5a3.91 3.91 0 0 1-2.94 6.1l-.22.85a9.55 9.55 0 0 1-4.92 1.34c1-1.84-.31-4.21-2.14-5.18s-4-.94-6.08-.87l-11.33.35c-3.13.1-6.36.18-9.28-.95s-5.5-3.77-5.54-6.9c1.74-.69 3.72-1.85 5.56-2.21 2.08-.42 1.24.65 2.94 1.59z" transform="translate(-152.96 -237)" fill="#f6b9ad"/><path d="M606.37 452.71a7.25 7.25 0 0 0 4.11-.61" transform="translate(-152.96 -237)" stroke="#f3f9fe" stroke-miterlimit="10" stroke-width=".5" fill="none"/><circle cx="751.49" cy="293.05" r="4.31" fill="#f6b9ad"/><path fill="url(#R)" d="M251.09 106.53h5.76v13.38h-5.76z"/><path fill="#4dd0e1" d="M251.77 106.53h3.65v13.38h-3.65z"/><path fill="url(#S)" d="M221.36 102.21h35.73v4.79h-35.73z"/><path fill="#4dd0e1" d="M221.36 102.88h34.06v3.65h-34.06z"/><circle cx="252.71" cy="130.04" r="12.37" fill="url(#T)"/><circle cx="252.71" cy="128.04" r="11.4" fill="#ffeb3b"/><path fill="url(#U)" d="M220.09 67.6h5.79v181.26h-5.79z"/><path fill="#4dd0e1" d="M221.36 67.6h3.65v181.26h-3.65z"/><circle cx="222.91" cy="60.68" r="9.08" fill="#37474f"/><path fill="url(#V)" d="M234.09 115.22h38v6.78h-38z"/><path fill="#4dd0e1" d="M235.96 116.26h34.06v3.65h-34.06z"/><path d="M222.7 303.83c-7.36 0-13.38 1.65-13.38-5.23v-50.08c0-6.89 6-12.52 13.38-12.52 7.34 0 13.34 5.63 13.34 12.52v50.07c0 6.89-6 5.24-13.34 5.24z" fill="url(#W)"/><path d="M375.66 538.18c-6.39 0-11.61 1.53-11.61-4.86v-46.45a11.65 11.65 0 0 1 11.61-11.61 11.65 11.65 0 0 1 11.61 11.61v46.45c0 6.39-5.27 4.86-11.61 4.86z" transform="translate(-152.96 -237)" fill="#4dd0e1"/><path fill="url(#X)" d="M831.33 106.53h5.76v13.38h-5.76z"/><path fill="#4dd0e1" d="M832.76 106.53h3.65v13.38h-3.65z"/><path fill="url(#Y)" d="M831.09 102.21h35.73v4.79h-35.73z"/><path fill="#4dd0e1" d="M832.76 102.88h34.06v3.65h-34.06z"/><circle cx="835.46" cy="130.04" r="12.37" fill="url(#Z)"/><circle cx="835.46" cy="128.04" r="11.4" fill="#ffeb3b"/><path fill="url(#aa)" d="M862.3 67.6h5.79v181.26h-5.79z"/><path fill="#4dd0e1" d="M863.17 67.6h3.65v181.26h-3.65z"/><circle cx="865.27" cy="60.68" r="9.08" fill="#37474f"/><path fill="url(#ab)" d="M816.09 115.22h38v6.78h-38z"/><path fill="#4dd0e1" d="M818.16 116.26h34.06v3.65h-34.06z"/><path d="M865.47 303.83c7.36 0 13.38 1.65 13.38-5.23v-50.08c0-6.89-6-12.52-13.38-12.52-7.36 0-13.38 5.63-13.38 12.52v50.07c-.05 6.89 6.02 5.24 13.38 5.24z" fill="url(#ac)"/><path d="M1018.43 538.18c6.39 0 11.61 1.53 11.61-4.86v-46.45a11.65 11.65 0 0 0-11.61-11.61 11.65 11.65 0 0 0-11.61 11.61v46.45c0 6.39 5.18 4.86 11.61 4.86z" transform="translate(-152.96 -237)" fill="#4dd0e1"/></svg>