<?xml version="1.0" encoding="UTF-8"?>
<svg width="767px" height="217px" viewBox="0 0 767 217" version="1.1" xmlns="http://www.w3.org/2000/svg" xmlns:xlink="http://www.w3.org/1999/xlink">
    <!-- Generator: Sketch 48.1 (47250) - http://www.bohemiancoding.com/sketch -->
    <title>logo</title>
    <desc>Created with Sketch.</desc>
    <defs>
        <linearGradient x1="0%" y1="0%" x2="101.999998%" y2="100.999999%" id="linearGradient-1">
            <stop stop-color="#3023AE" offset="0%"></stop>
            <stop stop-color="#C86DD7" offset="100%"></stop>
        </linearGradient>
    </defs>
    <g id="Page-1" stroke="none" stroke-width="1" fill="none" fill-rule="evenodd">
        <g id="logo" fill="url(#linearGradient-1)">
            <path d="M325.424151,11.5183876 C373.818599,11.5183876 397.875142,38.1173975 397.875142,75.4123055 C397.875142,107.218529 376.069504,124.38826 363.689529,129.736209 L401.814225,203.622348 L346.245018,203.622348 L314.169628,136.491513 L291.519901,136.491513 L291.519901,203.622348 L242,203.622348 L242,11.5183876 L325.424151,11.5183876 Z M291.519901,101.589109 L317.545985,101.589109 C334.005724,101.589109 345.963655,93.0042433 345.963655,75.553041 C345.963655,57.6796322 333.161635,48.6725601 317.827348,48.6725601 L291.519901,48.6725601 L291.519901,101.589109 Z M423.647999,11.5183876 L501.58557,11.5183876 C563.766809,11.5183876 588.808122,49.7984441 588.808122,106.655587 C588.808122,163.934936 563.344764,203.622348 501.58557,203.622348 L423.647999,203.622348 L423.647999,11.5183876 Z M474.152671,51.0650636 L474.152671,164.075672 L493.144678,164.075672 C518.326673,164.075672 537.177999,154.364922 537.177999,107.922207 C537.177999,77.8048091 529.01847,51.0650636 493.144678,51.0650636 L474.152671,51.0650636 Z M603.748501,146.62447 L651.439542,146.62447 C652.14295,158.024045 663.11611,169.14215 684.359021,169.14215 C704.617163,169.14215 713.480099,160.557284 713.480099,149.298444 C713.480099,138.039604 703.913755,133.113861 685.484474,129.454738 L659.599071,124.247525 C630.19663,118.477369 607.546903,102.996464 607.546903,68.7977369 C607.546903,29.9547383 639.481612,8 683.936977,8 C732.894151,8 759.34228,35.4434229 759.482962,67.3903819 L713.339418,67.3903819 C712.776692,56.6944837 703.49171,45.4356436 683.936977,45.4356436 C666.633148,45.4356436 657.62953,53.4575672 657.62953,64.7164074 C657.62953,74.427157 666.773829,80.0565771 683.092888,83.0120226 L709.963061,88.0785007 C737.255279,93.0042433 763,106.655587 763,144.091231 C763,181.66761 735.004374,207 682.811525,207 C622.740509,207 604.029864,174.912306 603.748501,146.62447 Z" id="RDS"></path>
            <g id="noun_748861" transform="translate(6.000000, 8.000000)" fill-rule="nonzero" stroke="url(#linearGradient-1)" stroke-width="8">
                <path d="M153.879185,75.9125491 L153.879185,33.6693649 L95.7563601,0 L37.6405968,33.6693649 L37.6405968,76.1888954 L0,97.9942673 L0,165.330635 L58.1204713,199 L96.001177,177.055274 L133.879529,199 L192,165.330635 L192,97.9942673 L153.879185,75.9125491 Z M43.6715668,37.1650268 L95.7563601,6.99132375 L147.845861,37.1650268 L147.845861,72.4168872 L133.879529,64.3272643 L96.001177,86.2719903 L58.1204713,64.3272643 L43.6715668,72.6979573 L43.6715668,37.1650268 Z M81.7947354,126.585475 L95.7563601,134.675098 L110.212327,126.302043 L110.212327,161.834973 L96.003531,170.06395 L81.7970894,161.834973 L81.7970894,126.585475 L81.7947354,126.585475 Z M95.7563601,127.681412 L81.7947354,119.594151 L81.7947354,101.489929 L96.001177,93.2585902 L110.209973,101.489929 L110.209973,119.305995 L95.7563601,127.681412 Z M43.6715668,79.6869192 L58.1204713,71.3162261 L89.9678531,89.7652903 L75.7614114,97.9942673 L75.7614114,116.098489 L43.6715668,97.5077089 L43.6715668,79.6869192 Z M102.036855,89.7652903 L133.879529,71.3162261 L147.845861,79.405849 L147.845861,97.5100709 L116.243297,115.815057 L116.243297,97.9966292 L102.036855,89.7652903 Z M58.1204713,192.006314 L6.03567794,161.834973 L6.03567794,101.489929 L37.6382428,83.182581 L37.6382428,101.005733 L75.7614114,123.092175 L75.7614114,165.332997 L89.9654991,173.561974 L58.1204713,192.006314 Z M185.96903,161.834973 L133.879529,192.006314 L102.036855,173.559612 L116.243297,165.330635 L116.243297,122.806381 L153.879185,101.005733 L153.879185,82.9015109 L185.96903,101.489929 L185.96903,161.834973 Z" id="Shape"></path>
            </g>
        </g>
    </g>
</svg>