<?xml version="1.0" encoding="UTF-8"?>
<svg width="780px" height="241px" viewBox="0 0 780 241" version="1.1" xmlns="http://www.w3.org/2000/svg" xmlns:xlink="http://www.w3.org/1999/xlink">
    <!-- Generator: Sketch 48.1 (47250) - http://www.bohemiancoding.com/sketch -->
    <title>Artboard</title>
    <desc>Created with Sketch.</desc>
    <defs>
        <linearGradient x1="0%" y1="0%" x2="101.999998%" y2="100.999999%" id="linearGradient-1">
            <stop stop-color="#3023AE" offset="0%"></stop>
            <stop stop-color="#C86DD7" offset="100%"></stop>
        </linearGradient>
    </defs>
    <g id="Page-1" stroke="none" stroke-width="1" fill="none" fill-rule="evenodd">
        <g id="Artboard" fill="url(#linearGradient-1)">
            <text id="RDS" font-family="SanFranciscoDisplay-Heavy, San Francisco Display" font-size="288" font-weight="600" line-spacing="288" letter-spacing="-1.79999995">
                <tspan x="239" y="242">RDS</tspan>
            </text>
            <g id="noun_748861" transform="translate(6.000000, 14.000000)" fill-rule="nonzero" stroke="url(#linearGradient-1)" stroke-width="8">
                <path d="M165.099543,81.2531305 L165.099543,36.0380639 L102.738595,0 L40.3852237,36.0380639 L40.3852237,81.5489181 L0,104.888336 L0,176.961936 L62.3584223,213 L103.001263,189.511424 L143.641578,213 L206,176.961936 L206,104.888336 L165.099543,81.2531305 Z M46.8559518,39.7796518 L102.738595,7.48317567 L158.626289,39.7796518 L158.626289,77.5115426 L143.641578,68.8528005 L103.001263,92.3413766 L62.3584223,68.8528005 L46.8559518,77.8123865 L46.8559518,39.7796518 Z M87.7589348,135.490985 L102.738595,144.149728 L118.248642,135.187613 L118.248642,173.220348 L103.003788,182.028248 L87.7614605,173.220348 L87.7614605,135.490985 L87.7589348,135.490985 Z M102.738595,136.664024 L87.7589348,128.00781 L87.7589348,108.629924 L103.001263,99.819496 L118.246116,108.629924 L118.246116,127.699382 L102.738595,136.664024 Z M46.8559518,85.2930341 L62.3584223,76.3334481 L96.528009,96.0804363 L81.285681,104.888336 L81.285681,124.266222 L46.8559518,104.367548 L46.8559518,85.2930341 Z M109.477042,96.0804363 L143.641578,76.3334481 L158.626289,84.9921902 L158.626289,104.370076 L124.71937,123.96285 L124.71937,104.890864 L109.477042,96.0804363 Z M62.3584223,205.514296 L6.47577946,173.220348 L6.47577946,108.629924 L40.382698,89.0346219 L40.382698,108.111664 L81.285681,131.751926 L81.285681,176.964464 L96.5254834,185.772364 L62.3584223,205.514296 Z M199.529272,173.220348 L143.641578,205.514296 L109.477042,185.769836 L124.71937,176.961936 L124.71937,131.446026 L165.099543,108.111664 L165.099543,88.733778 L199.529272,108.629924 L199.529272,173.220348 Z" id="Shape"></path>
            </g>
        </g>
    </g>
</svg>